<?xml version="1.0" encoding="UTF-8"?>
<svg xmlns="http://www.w3.org/2000/svg" viewBox="0 0 309 36">
  <defs>
    <style>
      .cls-1 {
        fill: #fff;
        fill-rule: evenodd;
      }

      .cls-2 {
        isolation: isolate;
      }
    </style>
  </defs>
  <g id="New_UCB_Library_Logo_1" data-name="New UCB Library Logo 1" class="cls-2">
    <g id="New_UCB_Library_Logo_1-2" data-name="New UCB Library Logo 1">
      <path class="cls-1" d="M76.98,13.66c-.38-.16-.77-.32-1.15-.47-.02-.01-.05-.02-.07-.03,2.63-1.06,4.56-5.72,2.43-8.76-1.77-2.53-5.14-3.14-9.53-3.08-.37.02-.74.05-1.12.07-1.76.27-3.93.1-5.74.03-.76-.03-2.2-.3-2.57.24-1.03,1.53,2.62,1.48,3.14,2.27.51.76.07,3.3.24,4.43v10.08c-.01,1.27-.02,2.55-.03,3.82-.02.71-.05,1.42-.07,2.13-.33,1.29-2.06.6-3.01,1.25-.39.27-.41,1.12,0,1.39.42.28,1.38.1,2.03.1,1.66,0,3.43-.25,5.03,0,6,.92,10.93-.2,13.28-3.75,1.3-1.96,1.49-5.06.17-7.17-.7-1.11-1.84-1.93-3.04-2.54ZM67.01,5.65c.16-1.03-.17-1.78.64-2.13.54-.23,1.33-.24,2.06-.24,3.63,0,5.85,2.54,4.87,6.46-.28,1.11-.85,1.8-1.25,2.67-.28.18-1.11.02-1.62-.07-1.42-.25-3.18-.14-4.76-.14.02-2.19.05-4.37.07-6.56ZM74.34,24.21c-1.25.91-3.55,1.42-5.61.91-.58-.14-1.12-.23-1.42-.64-.41-.56-.17-1.41-.3-2.3-.02-1.76-.05-3.52-.07-5.28.01-.9.02-1.8.03-2.71,3.47-.01,6.79.27,8.31,2.2,1.88,2.38,1.15,6.28-.95,7.81ZM286.08,9.71c-1.57.4-2.68,1.84-3.51,3.01-.21.32-.43.63-.64.95v.07c-.39-1.02.39-3.16-.07-4.02-.1-.22-.27-.26-.61-.24-1.34.73-3.69.39-5.07,1.08-.64,1.71,2.2.87,2.64,1.93.32.77-.01,2.26.1,3.21v6.97c-.12.8.21,1.97-.17,2.54-.32.47-1.67.53-2.23.74-.11.16-.31.44-.17.74.23.61,1.37.4,2.13.37,1.57-.05,3.42-.2,4.97.03.72.11,1.35-.02,1.66-.34v-.54c-.44-1-2.85-.13-3.18-1.29-.02-2.3-.05-4.6-.07-6.9v-2.6c.22-.59,2.07-2.4,2.64-2.74.87-.52,1.95-.28,2.64.24.21.16.66.82,1.15.61.22-.1,1.21-2.13,1.28-2.5.19-1-2.39-1.59-3.48-1.32ZM113.27,10.32c-.19-.63-2.42-1.63-3.58-1.42-1.83.34-2.91,1.96-3.82,3.25-.2.32-.41.63-.61.95v-4.09c-.07-.08-.14-.16-.2-.24-.11-.01-.23-.02-.34-.03-1.12.54-2.73.6-4.05.85-.8.15-1.68-.02-2.1.51-.37,1.52,1.54,1.04,2.33,1.59.53.37.29,1.55.41,2.33v7.03c-.03,1.27-.07,2.55-.1,3.82-.36,1.18-3.1,0-2.47,2.03.54.36,1.45.22,2.3.2,1.62-.03,3.39-.21,4.97.03.81.12,2.05.13,2.26-.41.63-1.57-2.58-.93-2.94-1.83-.28-.7-.14-3.19-.14-4.16v-5.55c.26-.71,2.32-2.7,3.11-2.94,1.65-.5,2.52,1.63,3.38,1.32.26-.1,1.74-2.76,1.59-3.25ZM87.22,10.01c-2.64,1.56-3.88,4.01-4.46,7.68-.17,1.09.05,2.36.24,3.18.89,3.83,3.07,5.92,7.16,6.56,2.84.45,5.08-1.13,6.45-2.23.4-.32,1.46-1.12,1.15-1.86-.17-.45-.74-.48-1.15-.24-1.22.72-2.86,1.8-5,1.42-3.17-.57-5.13-3.08-5.07-6.83,1.11-.18,2.23-.36,3.35-.54,1.81-.39,3.59-.62,5.31-1.05.78-.19,2.28-.22,2.67-.81.39-.58-.38-2.18-.61-2.57-1.69-2.89-6.12-5.01-10.04-2.71ZM93.84,14.27c-.48.33-1.17.38-1.82.54-1.68.43-3.53.86-5.34,1.08.06-1.93,1.09-3.77,2.37-4.53.38-.23.82-.22,1.28-.41,1.79-.02,4.04,1.56,3.51,3.31ZM308.89,10.28c-.21-.45-.96-.4-1.62-.34-.77.03-1.53.07-2.3.1-.52-.08-2.31-.26-2.7-.07-.25.12-.43.61-.24.95.39.79,2.15.27,2.4,1.22.19.72-.78,2.48-1.01,3.04-.82,1.99-1.58,3.98-2.4,5.92-.35.82-.7,1.65-1.05,2.47-.01.02-.02.05-.03.07-.29-.72-.59-1.44-.88-2.16-.71-1.94-1.42-3.88-2.13-5.82-.36-1.04-.72-2.07-1.08-3.11-.31-1.63,3.02-.63,2.43-2.2-.08-.11-.16-.23-.24-.34-.83-.2-2.3-.11-3.24.03-1.35-.05-2.7-.09-4.06-.14-.27.12-.41.16-.61.3-.3,1.31.97.99,1.69,1.45.51.33.8,1.1,1.05,1.69,1.84,4.58,3.67,9.15,5.51,13.73-.16,1.39-2.41,4.46-3.45,5.07-.67.39-1.8.33-2.5.74-.55.33-1.02,1.28-.54,2.03.36.56,1.38.87,2.33.61,1.38-.38,2.34-1.59,3.08-2.64,1.52-2.17,2.53-4.77,3.65-7.34,1.44-3.32,2.83-6.68,4.26-10.04.43-1.02,1.1-3.19,1.89-3.79.45-.33,2.39-.38,1.79-1.45ZM27,1.42c-.7.02-1.4.05-2.1.07-1.34.2-3.47.13-4.73-.07-.81-.12-1.78-.04-1.93.54-.45,1.75,3.09.77,3.41,2.13.02,2.4.05,4.8.07,7.2.01,1.13.02,2.25.03,3.38,0,5.05-.81,8.21-4.53,9.5-.77.27-1.99.58-3.11.41-.63-.1-1.26-.2-1.89-.3-5.21-1.58-4.53-7.21-4.53-13.86.02-1.69.05-3.38.07-5.07.07-.47-.09-1.05.07-1.42.49-1.12,3.11-.21,3.28-1.62.11-.97-1.2-1.03-2.16-.88-2.66.41-5.62-.01-8.35,0C.25,1.62,0,1.67,0,2.23,0,3.75,2.85,2.8,3.28,3.99c.02,1,.05,2.01.07,3.01.01,2.1.02,4.19.03,6.29,0,2-.2,4.26.14,6.05.68,3.65,2.28,6.1,5.31,7.37,1.01.42,2.14.61,3.38.81.44.01.88.02,1.32.03,1.13.17,2.61-.1,3.55-.37,1.5-.44,2.74-1.1,3.82-1.96,3.81-3.04,3.35-8.7,3.35-15.49.01-1.83.02-3.65.03-5.48.28-1.46,2.27-.58,3.11-1.42.45-.45.19-1.28-.37-1.42ZM239.55,9.74c-1.02-.24-2.37-.13-3.21.2-1.03.41-2.06,1.12-2.7,1.93-.2.25-.41.5-.61.74V4.26c.14-.96.18-2.73-.03-3.52-.17-.12-.26-.18-.57-.17-1.21.72-3.54.61-5.03,1.05-.12.18-.26.51-.1.78.4.81,2.25.33,2.67,1.15.31.61.1,3.85.1,4.84v11.73c-.05,1.87-.09,3.74-.14,5.61-.08.51-.19,1.46.14,1.69.74.71,2.05-1.39,2.26-1.83h.07c.77.59,1.52,1.19,2.57,1.52,5.17,1.63,8.9-2.53,9.87-6.26.27-1.05.52-2.62.3-3.92-.64-3.77-2.04-6.36-5.58-7.2ZM235.29,25.43c-1.05-.37-1.55-1.05-2.3-1.69v-9.33c.26-.8,1.88-1.91,2.7-2.23.39-.09.79-.18,1.18-.27,8.14-.07,6.4,16.36-1.59,13.53ZM49.77,19.99c-.25.62-.5,1.24-.74,1.86-.99,1.67-2.5,2.78-4.63,3.31-5.47,1.37-9.3-2.3-10.71-5.85-2.52-6.34.2-13.5,4.93-15.49,1.1-.46,2.81-.99,4.56-.71,2.66.43,4.34,1.13,5.51,3.01.34.54.81,2.45,1.86,2.03.63-.25.76-4.05.3-4.73-.38-.56-1.2-.83-1.86-1.12-2.04-.88-4.35-1.37-7.37-1.32-.41.03-.81.07-1.22.1-.96.17-1.9.3-2.77.57-3.14.98-5.77,2.87-7.37,5.41-.75,1.2-1.34,2.53-1.76,4.06-.32,1.18-.6,2.91-.37,4.4.16,1.06.14,1.94.41,2.84,1.26,4.23,4.02,7.21,8.18,8.52,1.4.44,2.86.44,4.56.71.57-.03,1.15-.07,1.72-.1,2.5-.4,4.34-.89,6.12-1.93.74-.43,1.75-.8,2.06-1.66.19-.52.23-3.16.03-3.69-.2-.54-1.06-.76-1.45-.24ZM223.77,6.43c2.3-.64,2.09-4.31-.98-4.23-.84.38-1.43.64-1.69,1.59-.48,1.73,1.06,3.08,2.67,2.64ZM189.37,9.5c-.88.02-1.76.05-2.64.07-.75-.11-1.82-.17-2.47.03-1.2,1.69,2.52,1.03,2.06,3.28-.22,1.1-.64,2.14-1.01,3.11-.69,1.77-1.23,3.5-1.96,5.21-.35.81-.7,1.62-1.05,2.43-.02.01-.05.02-.07.03-.45-1.14-.9-2.28-1.35-3.42-.57-1.6-1.15-3.2-1.72-4.8-.26-.66-1.2-2.67-.88-3.48.37-.93,1.83-.73,2.4-1.45.25-.98-.63-1.22-1.69-1.05-2.22.35-4.68-.03-6.96,0-.22.13-.36.17-.51.37-.31,1.25.95,1.03,1.59,1.52.51.39.79,1.37,1.05,2,1.97,4.96,3.94,9.92,5.91,14.88.04.39-.6,1.05-.78,1.32-.62.93-1.31,1.81-2.4,2.27-1.05.44-2.24.38-2.87,1.22-.91,1.21-.06,2.67,1.18,2.91,2.42.47,4.02-2.38,4.83-3.69,3.04-4.85,5.21-10.74,7.43-16.33.54-1.36.92-3.11,1.76-4.23.42-.56,1.19-.49,1.76-.91.24-.18.41-.76.14-1.05-.25-.42-1.17-.26-1.76-.24ZM224.78,24.82v-11.4c0-.94.27-3.55-.2-3.92-.14-.01-.27-.02-.41-.03-.96.49-2.4.57-3.55.78-.61.11-1.42-.04-1.66.44-.57,1.17,1.98,1.12,2.5,1.49.48.34.23,1.49.34,2.2v7.54c-.02,1-.05,2.01-.07,3.01-.3,1.19-3.06.24-2.43,1.96.45.27,1.48.28,2.2.17,1.75-.26,4.19.37,5.68-.1.13-.18.31-.5.14-.78-.44-.9-2.31-.17-2.53-1.35ZM216.97,20.29c-.53.37-.83,3.55-1.39,4.29-.51.69-1.47.43-2.53.61-.84.02-1.69.05-2.53.07-.9.15-3.53.16-4.36-.03-.39-.09-.84-.29-1.05-.57-.64-.86-.41-3.07-.41-4.5v-11.23c.13-1.12-.27-4.13.14-4.84.52-.91,2.98-.25,3.21-1.35.18-.86-.86-.98-1.66-.85-2.4.39-5.12-.01-7.57,0-.24.13-.37.19-.54.37-.06.24-.09.48.03.68.43.88,2.82.14,3.21,1.29.02,2.06.05,4.13.07,6.19-.01,4.72-.02,9.45-.03,14.17-.28,1.41-3.86.49-3.31,2.06.27.76,3.48.34,4.53.34h10.58c.86.01,1.71.02,2.57.03.56.09,1.22.24,1.79.07.27-.38.14-.78.24-1.42.08-1.6.16-3.2.24-4.8-.05-.28-.2-.42-.34-.61-.26-.06-.66-.12-.88.03ZM256.14,9.71c-1.57.4-2.69,1.84-3.51,3.01-.21.32-.43.63-.64.95v.07c-.39-1.02.39-3.15-.07-4.02-.1-.22-.27-.26-.61-.24-.93.5-2.39.57-3.51.78-.58.11-1.28-.03-1.55.37-1,1.12,2.24,1.23,2.57,1.72.38.56.08,2.48.2,3.31-.01,2.36-.02,4.71-.03,7.07-.12.77.16,1.7-.1,2.33-.32.77-3.11.42-2.43,1.69.26.52,1.42.34,2.13.3,1.55-.07,3.41-.2,4.93.03.72.11,1.35-.02,1.66-.34.04-.19.05-.46-.03-.61-.47-.94-2.82-.07-3.14-1.22-.02-2.3-.05-4.6-.07-6.9v-2.6c.22-.59,2.06-2.4,2.64-2.74.88-.52,1.94-.27,2.64.24.21.15.66.82,1.15.61.22-.1,1.2-2.11,1.28-2.47.23-1.03-2.39-1.63-3.48-1.35ZM160.68,10.15c-2.74,1.71-3.66,4.04-4.26,7.91-.14.92.07,1.99.24,2.71.88,3.88,3.04,6.01,7.16,6.66,2.69.43,5.34-1.1,6.52-2.27.52-.51,1.39-1.04,1.01-2.03-.15-.09-.38-.27-.68-.2-.37.21-.74.43-1.12.64-.73.42-1.59.73-2.53.91-4.23.82-6.86-2.97-6.79-6.8,1.05-.17,2.1-.34,3.14-.51,1.82-.39,3.62-.62,5.34-1.05.71-.18,2.47-.33,2.8-.81.43-.62-.38-2.26-.64-2.71-1.77-3-6.37-4.86-10.2-2.47ZM167.5,14.24c-.23.39-1.16.42-1.66.54-1.72.43-3.63.63-5.41,1.12h-.1c.28-2.04,1.03-3.75,2.5-4.6.35-.2.78-.17,1.18-.34,1.65-.03,2.64.76,3.21,1.83.15.28.62,1.04.27,1.45ZM130.57,25.4c-.27-.19-.54-.38-.81-.57-1.23-1.22-2.13-2.82-3.14-4.26-.79-1.17-1.58-2.34-2.37-3.52.55-.5,1.1-.99,1.66-1.49,1.29-1.04,2.51-2.29,3.55-3.58.3-.37,1.54-1.44,1.15-2.16-.21-.44-.95-.44-1.59-.34-1.4.22-4.7-.37-5.41.37-.34,1.68,1.97.84,2.3,1.96.24.83-.9,1.95-1.25,2.3-1.73,1.75-3.64,3.36-5.81,4.67.01-4.43.02-8.86.03-13.29,0-1.24.31-4.59-.07-5.41-.15-.05-.34-.07-.57-.07-1.32.69-5.23.49-6.08,1.35v.57c.39.91,2.32.37,2.67,1.32.02.6.05,1.19.07,1.79.02,1.57.05,3.13.07,4.7-.02,4.96-.05,9.92-.07,14.88-.24,1.3-3.15.51-2.7,2.03.19.66,1.18.49,1.99.47,1.67-.03,3.55-.26,5.2,0,.66.1,1.83.12,2.1-.24,1.1-1.44-2.17-1.3-2.5-1.89-.25-.45-.1-3.23-.1-4.02.75-.5,1.51-.99,2.26-1.49.02-.02.05-.05.07-.07,1.27,1.87,2.55,3.74,3.82,5.61.48.68.92,1.88,1.86,2.06.84.16,5,.05,5.24-.27.86-1.18-.98-1.18-1.55-1.42ZM136.55,9.64c-2.74,1.18-4.39,3.71-5.07,6.97-1.02,4.87,1.65,8.9,4.7,10.21,3.77,1.62,8.6-.21,10.1-2.74.29-.49.05-1.31-.68-1.15-.42.24-.83.47-1.25.71-1.17.68-3.26,1.24-5,.71-2.58-.78-4.26-3.28-4.22-6.66.99-.16,1.98-.32,2.97-.47,1.94-.4,3.85-.66,5.68-1.12.79-.2,2.27-.22,2.67-.81.33-.48-.05-1.38-.24-1.83-1.27-3.06-5.39-5.67-9.66-3.82ZM142.46,14.17c-.22.46-1.15.46-1.69.61-1.7.46-3.67.96-5.51,1.12.13-1.95,1.06-3.74,2.37-4.53.38-.23.82-.22,1.28-.41,1.69-.03,2.58.75,3.21,1.79.17.29.59.96.34,1.42ZM272.93,22.93c-.26-1.11-.33-4.06-.14-5.34v-1.62c.16-.99.16-2.44-.1-3.28-.68-2.25-2.59-3.08-5.58-3.04-.71.28-1.57.2-2.23.41-1.71.53-3.19,1.54-4.09,2.91-.46.71-1.03,2.34-.1,3.04,1,.76,2.49.06,2.7-.95.13-.63-.2-1.21,0-1.76.18-.49.63-.93,1.05-1.18.41-.25.94-.44,1.45-.57,2.25-.6,3.67.45,4.02,2.23-.01,1.15-.02,2.3-.03,3.45-.68.18-1.35.36-2.03.54-2.67.81-5.56,1.65-6.89,3.79-.5.79-.76,2.22-.41,3.38.67,2.2,3.55,3.23,6.12,2.13.92-.4,1.7-1.03,2.43-1.62.38-.41.77-.81,1.15-1.22.33,1.36,1.14,3.04,2.4,3.45.69.23,2.54-1.09,2.53-1.76-1-1.05-1.85-1.21-2.26-2.98ZM263.4,23.57c-.6-2.64,3.15-3.97,4.93-4.53.51-.14,1.01-.27,1.52-.41.01.51.02,1.01.03,1.52.04.95.09,1.89.14,2.84-1.02,1.39-5.86,3.93-6.62.57ZM153.38,24.62c-.01-1.65-.02-3.29-.03-4.94V6.09c.01-1.95.02-3.9.03-5.85-.07-.07-.14-.14-.2-.2-.15-.01-.29-.02-.44-.03-1.04.53-3.01.61-4.29.85-.72.13-1.69-.04-1.86.64-.31,1.25,2.18.91,2.64,1.59.37.55.2,3.33.2,4.26v11.57c-.02,1.94-.05,3.88-.07,5.82-.25,1.11-2.1.41-2.64,1.18-.32.45-.06,1.1.37,1.22.59-.01,1.17-.02,1.76-.03,1.33-.2,3.82-.17,5.1.03.63.1,1.82.12,2.1-.2.12-.14.18-.4.14-.61-.28-1.32-2.56-.32-2.8-1.69Z"/>
    </g>
  </g>
</svg>