<?xml version="1.0" encoding="utf-8"?>
<!-- Generator: Adobe Illustrator 24.0.1, SVG Export Plug-In . SVG Version: 6.00 Build 0)  -->
<svg version="1.1" id="Layer_1" xmlns="http://www.w3.org/2000/svg" xmlns:xlink="http://www.w3.org/1999/xlink" x="0px" y="0px"
	 viewBox="0 0 315 52" style="enable-background:new 0 0 315 52;" xml:space="preserve">
<style type="text/css">
	.st0{fill-rule:evenodd;clip-rule:evenodd;}
</style>
<path id="Berkeley_Library" class="st0" d="M21.7,19.2l1.4,0.4v0.1l1.2,0.4v0.1l0.5,0.1l0.1,0.3l0.8,0.3l0.1,0.3h0.3l0.1,0.3h0.3
	l0.3,0.4h0.3l0.9,1.1l0.5,0.4v0.3l0.4,0.3l0.1,0.5l0.3,0.1V25h0.1v0.3h0.1v0.4h0.1v0.4H30v0.5h0.1v0.7h0.1l-0.1,3.5H30v0.5h-0.1
	l-0.1,0.8h-0.1L29.3,33h-0.1L29,33.5l-0.3,0.1v0.3l-0.4,0.3v0.3l-0.3,0.1l-0.7,0.8h-0.3L26.7,36h-0.3l-0.1,0.3l-0.8,0.3l-0.1,0.3
	L21.7,38L19,38.3v0.1h-4.6v-0.1h-1.2v-0.1h-1.2V38h-1.4v-0.1L4.5,38c-0.3,0-0.3,0.1-0.3,0.1c-0.6,0.1-1.3,0.1-1.9-0.3H2.2v-0.8
	l0.3-0.1c0.8-0.7,3.2,0.2,3.9-0.5c0.3-0.3,0.1-1.6,0.1-2.2V5.9C6.4,5.5,6.3,5.1,6.2,4.7H6.1L6,4.2H5.8V3.9C5.6,3.7,5.3,3.5,5,3.4
	H3.3l-2-0.3C1.1,2.8,1.1,2.5,1.1,2.1C3.3,1.9,5.6,1.9,7.9,2h2.4V1.9l4.9-0.1c3,0,5.3,0,7.5,0.8l0.8,0.1v0.1L24,2.9v0.1l0.8,0.3v0.1
	l0.4,0.1l0.1,0.3h0.3l0.8,0.9l0.7,0.5c0.9,1.3,1.4,2.9,1.4,4.5v1.6l-0.8,2.4L27.4,14l-0.1,0.5l-0.4,0.3v0.3l-1.1,0.9l-0.5,0.7h-0.3
	l-0.3,0.4h-0.3l-0.1,0.3l-0.4,0.1v0.1h-0.3L23.5,18L23,18.1v0.1h-0.3v0.1h-0.3l-0.1,0.3h-0.3v0.1C21.7,19,21.9,18.7,21.7,19.2z
	 M122.8,37.7c-1.9,0.2-3.8,0.2-5.7,0.1c-1.9,0.1-3.9,0.1-5.8-0.1v-0.8l0.5-0.1v-0.1h1.1c0.8,0.1,1.6,0,2.4-0.3
	c0.2-1,0.2-2.1,0.1-3.1v-28h-0.1V4.8h-0.1V4.7c-0.1-0.1-0.2-0.2-0.3-0.3h-0.3V4.3l-2.8-0.1c-0.1-0.2-0.2-0.4-0.4-0.5l0.1-0.5
	l4.7-0.5l3-0.8c0,0.1,0.1,0.2,0.1,0.3c0.3,0.8,0.3,1.6,0.1,2.4c-0.2,2.2-0.3,4.3-0.1,6.5c0,5.5-0.1,11-0.1,16.5V28h-0.1v6.6h0.1v0.9
	h0.1c0,0.2,0.1,0.5,0.1,0.7c0.1,0.1,0.2,0.2,0.3,0.3h0.3v0.1c0.8,0.3,2-0.3,2.6,0.3c0.1,0.1,0.1,0.2,0.3,0.3L122.8,37.7z M76.6,1.9
	c0.1,1.6,0,4.1,0,6.1c0.1,1.1,0,2.2-0.1,3.2c-0.1,5.9-0.2,11.8-0.3,17.7c0.2,0.1,0.4,0.1,0.7,0.1c0.2-0.1,0.3-0.2,0.5-0.3v-0.1h0.3
	l0.1-0.3h0.3l0.1-0.3h0.3l0.3-0.4H79l0.3-0.4h0.3l0.1-0.3l0.4-0.1l0.4-0.5h0.3l0.5-0.7h0.3l0.7-0.8h0.3l0.7-0.8l0.4-0.1l1.1-1.2
	c1.2-1.2,2.5-1.8,2.4-4.2c-0.1-0.1-0.2-0.2-0.3-0.3h-0.3v-0.1h-2.4C84.1,18,84,18,83.9,18c-0.1-0.3-0.1-0.5-0.1-0.8h0.1V17l0.9-0.1
	V17h1.6v0.1h0.8c1-0.1,2.1-0.2,3.1-0.1c0.3-0.1,0.6-0.2,0.9-0.1V17l0.4,0.1l-0.5,1.1l-0.4,0.3v0.3l-0.4,0.3v0.3l-0.9,0.8v0.3
	L88.8,21l-1.1,1.2h-0.3l-0.9,1.1h-0.3l-0.3,0.4l-0.4,0.3v0.1h-0.3L85,24.5h-0.1l-0.1,0.3h-0.3L84,25.3l-0.4,0.1l-0.5,0.7l-0.5,0.4
	c-0.1,0.3,0.1,0.2,0.1,0.3c0.1,0.4,0.3,0.7,0.5,0.9l0.3,0.1v0.3l0.7,0.5v0.3l0.7,0.5v0.3l0.7,0.5v0.3l0.4,0.3V31l0.3,0.1v0.3
	l0.8,0.7v0.3l0.5,0.4V33l0.5,0.4v0.3l0.5,0.4v0.3l0.8,0.7v0.3l0.3,0.1l0.4,0.5h0.3l0.4,0.5l0.5,0.1v0.1l1.8,0.1v0.1l0.7,0.1
	c0.1,0.2,0.1,0.4,0.1,0.7c-0.1,0-0.1,0.1-0.1,0.1c-0.8,0.1-1.6,0.1-2.4,0.1L90.3,38v0.1c-1,0.1-2.1,0.1-3.1-0.1l-0.7-0.8h-0.1v-0.3
	l-0.4-0.3v-0.3l-0.4-0.3v-0.3L85,35.4v-0.3l-0.7-0.5v-0.3l-0.8-0.7l-0.1-0.4L83,33v-0.3l-0.5-0.4v-0.3l-0.5-0.4l-0.1-0.4l-0.3-0.1
	v-0.3l-0.4-0.3v-0.3L80.7,30v-0.3l-0.5-0.4c-0.3-0.4-0.2-0.6-0.8-0.7c-0.5,0.4-1,0.7-1.5,0.9l-0.1,0.3L77.1,30L77,30.3h-0.3v0.1
	l-0.4,0.3V31h-0.1c-0.1,1.8,0,3.6,0.3,5.4l0.7,0.1v0.1c1,0.3,2.7-0.4,3.4,0.3h0.1v0.4c0,0,0.1,0.1,0.1,0.1h-0.1l-0.1,0.4H68.9
	c-0.2-0.2-0.3-0.5-0.3-0.8c0.2-0.2,0.5-0.3,0.8-0.3v-0.1h2.4c0.1-0.1,0.2-0.1,0.3-0.1c0.2-0.8,0.2-1.6,0.1-2.4
	c0.2-0.7,0.2-1.4,0.1-2V13.4c0-1.6,0.4-4.2,0-5.8V5.7C72.3,5.3,72.1,5,72,4.6c-0.2,0-0.3-0.1-0.4-0.3h-1.6L68.5,4
	c-0.1-0.2-0.1-0.4-0.1-0.7c0.2-0.2,0.1,0,0.1-0.3c0.7-0.2,1.4-0.2,2.2-0.1c0.4-0.3,1.6-0.1,2.2-0.3V2.5l1.4-0.1
	C74.9,2.1,75.7,1.9,76.6,1.9z M212.3,3.1l3.3-0.3V2.7h0.7V2.5h0.7V2.4h0.5V2.3h0.7V2.1l2-0.3c0.1,0.3,0.2,0.6,0.1,0.9h-0.1v0.8
	c-0.3,1.2-0.3,2.5-0.3,3.8c0,2.8-0.1,5.6-0.1,8.4c-0.1,1.3,0,2.5,0.1,3.8c0.3,0.1,0.5,0.1,0.8,0.1c0.2-0.1,0.3-0.2,0.5-0.3v-0.1h0.3
	v-0.1h0.3l0.3-0.3h0.3c0-0.1,0.1-0.2,0.1-0.3h0.3l0.3-0.3h0.3v-0.1h0.3v-0.1h0.3V18l0.8-0.3v-0.1h0.4v-0.1h0.3v-0.1l1.2-0.3v-0.1
	h0.8v-0.1h0.8v0.1h1.1V17h0.5v0.1h0.4v0.1h0.4v0.1l0.8,0.3v0.1l0.5,0.1l0.3,0.4h0.3l0.5,0.7l1.2,1.1v0.3l0.3,0.1v0.3l0.3,0.1
	l0.1,0.5l0.3,0.1c0,0.2,0.1,0.5,0.1,0.7h0.1c0,0.2,0.1,0.4,0.1,0.5h0.1c0.1,0.6,0.3,1.2,0.4,1.8h0.1v0.5h0.1V26h0.1v1.4
	c0.1,0.4,0.2,0.8,0.1,1.2h-0.1v1.2l-0.7,2.4h-0.1c-0.1,0.3-0.2,0.5-0.3,0.8h-0.1c0,0.2-0.1,0.4-0.1,0.5l-0.3,0.1v0.3l-0.3,0.1v0.3
	l-0.4,0.3v0.3l-0.8,0.7l-0.7,0.8h-0.3l-0.3,0.4l-0.5,0.1c0,0.1-0.1,0.2-0.1,0.3h-0.3v0.1H231v0.1h-0.4v0.1h-0.3v0.1h-0.4v0.1h-0.4
	V38h-0.4v0.1h-0.7v0.1c-1.3,0.2-2.7,0.3-4.1,0.1v-0.1h-0.8v-0.1H223V38h-0.5v-0.1h-0.5v-0.1h-0.4v-0.1h-0.4c-0.9-0.5-1.9-0.8-3-0.9
	l-0.8,1.1c-0.4,0.9,0.2,1.7-1.2,1.8c-0.2-1.3-0.3-2.5-0.1-3.8c0.2-0.7,0.2-1.4,0.1-2V13.5c0.1-2.8,0-5.7-0.3-8.5l-0.4-0.3V4.6h-0.3
	V4.4h-1.2V4.3c-0.5-0.2-1.3,0.2-1.6-0.1h-0.1V3.4C212.3,3.2,212.2,3.4,212.3,3.1z M200.1,33.8l0.1,0.5h-0.1c0,0.2-0.1,0.5-0.1,0.7
	h-0.1v0.3l-0.3,0.1l-0.4,1.2H199v0.3h-0.1v0.4h-0.1c0,0.3-0.1,0.5-0.3,0.7v0.1h-6.1c-0.5-0.2-1-0.2-1.5-0.1h-3.8
	c-5,0-10.6,0.1-15.2,0c-0.2-0.3-0.3-0.6-0.3-0.9c0.3-0.3,0.7-0.4,1.1-0.4c0.9-0.7,3.1,0.8,3.3-1.1c0.3-0.4,0.1-1.7,0.1-2.3V27
	c0-4.2,0.1-8.5,0.1-12.7c0-1.8,0.3-4.5-0.1-6V6.1h-0.1V5.1h-0.1V4.6h-0.1V4.3h-0.1V4l-0.4-0.3V3.6h-2.8V3.5l-0.7-0.1
	c-0.1-0.2-0.1-0.4-0.1-0.7c0.2-0.2,0.1,0,0.1-0.3c0.3,0,0.3-0.1,0.3-0.1h0.7V2.1c0.4,0,0.8,0,1.2,0.1h9.8l2.4-0.1v0.1h1.4
	c0.1,0.3,0.1,0.6,0.1,0.9l-0.4,0.1c-0.7,0.3-1.4,0.4-2.2,0.3c-1.1,0-2.3,0.2-3.4,0.4c-0.1,0.1-0.3,0.3-0.4,0.4v20.8
	c-0.3,0.3-0.1,2.3-0.1,3c0.1,2,0.2,4,0.3,6h0.1v0.5c0.1,0.6,0.5,1.1,0.9,1.5c0.5,0.5,3.9,0.3,5,0.3c2.6,0.1,5.2-0.2,7.7-0.8l1.1-0.1
	l2.6-1.1v-0.1h0.3v-0.1C199.3,34,199.7,33.9,200.1,33.8L200.1,33.8z M11.8,3.8c-0.2,1.7-0.2,3.4-0.1,5.1v9.3l0.4,0.1
	c0.6,0.2,1.3,0.2,1.9,0.1l4.6,0.1v0.1c0.5,0.1,1,0,1.4,0.1v-0.1c1.6-0.9,2.8-2.4,3.4-4.2l0.1-2h0.1l-0.1-2.2h-0.1V9.9h-0.1l-0.1-1
	h-0.1V8.6h-0.1V8.2h-0.1l-0.1-0.5h-0.1l-0.1-0.5L22,7V6.7l-0.3-0.1V6.3l-0.4-0.3V5.8l-0.5-0.4l-0.5-0.7h-0.3l-0.1-0.3h-0.3
	c-1.1-0.9-2.5-1.3-3.9-1.2h-2.3v0.1h-0.7v0.1h-0.4v0.1L11.8,3.8z M207.8,7.6c0.4,0,0.8,0,1.2,0.1c0.1,0.2,0.2,0.3,0.3,0.5h0.1
	c0.1,0.6,0,1.2-0.3,1.8H209v0.3h-0.1v0.3h-0.1c-0.1,0.3-0.4,0.5-0.7,0.5c-0.6,0.4-1.4,0.2-1.8-0.4c0-0.1-0.1-0.1-0.1-0.2H206V9.6
	h0.1V9.2h0.1c0-0.2,0.1-0.4,0.1-0.5l0.7-0.5l0.1-0.3C207.5,7.8,207.6,7.7,207.8,7.6z M40.4,16.5H43v0.1l1.1,0.1v0.1l0.8,0.1v0.1
	l0.7,0.1v0.1l0.5,0.1v0.1l0.5,0.1V18l0.4,0.1l0.1,0.3h0.3l0.1,0.3h0.3l0.3,0.4h0.3l0.7,0.8l0.7,0.5v0.3l0.5,0.4v0.3
	c0.5,0.5,0.8,1.1,0.9,1.8l-0.4,0.1v0.1l-0.9,0.1v0.1h-0.7v0.1h-0.5v0.1H48v0.1h-0.7c-1.4,0.4-3.2,0.5-4.6,0.9h-1.1v0.1h-1.1v0.1
	h-1.2v0.1h-1.5v0.1h-1.5v0.1h-0.3l-0.1,0.4c-0.2,0.6-0.2,1.2-0.1,1.8l0.4,2.4h0.1v0.4h0.1V31h0.1l0.1,0.7l0.3,0.1l0.1,0.5l0.3,0.1
	v0.3l0.5,0.4l0.8,0.9H39l0.1,0.3h0.3l0.1,0.3l0.5,0.1v0.1l0.8,0.3v0.1h0.4v0.1h0.4v0.1h0.5v0.1h0.5v0.1h0.8V36
	c1,0.1,2.1,0.1,3.1-0.1h0.9l3.3-1.1c0.1,0.2,0.2,0.3,0.3,0.5h-0.1c-0.5,0.5-1.1,0.9-1.8,1.2c-2,1.3-5.9,3-9.4,1.9l-1.1-0.1
	c-2.9-0.9-5.1-3-6.2-5.8v-0.5h-0.1v-0.4h-0.1v-0.7h-0.1V30h-0.1c-0.1-1.3-0.1-2.6,0.1-3.9v-0.8c0.9-3.1,1.8-5.2,4.2-6.9l0.3-0.4H37
	l0.1-0.3l2.2-0.9C39.7,16.7,40,16.6,40.4,16.5L40.4,16.5z M100.6,16.5h2.6v0.1l1.1,0.1v0.1l0.8,0.1v0.1l0.7,0.1v0.1l0.5,0.1v0.1h0.3
	l0.1,0.3l0.5,0.1v0.1l0.4,0.1l0.1,0.3h0.3l0.4,0.5h0.3l0.8,0.9l0.3,0.1v0.3l0.5,0.4v0.3l0.4,0.3c0.3,0.5,0.6,1,0.7,1.6l-0.4,0.1
	c-0.3,0.2-0.7,0.3-1.1,0.3v0.1h-0.5v0.1h-0.5v0.1h-0.7v0.1h-0.7c-1.7,0.5-3.9,0.6-5.7,1.1h-1.1v0.1h-1.2v0.1H98v0.1h-1.5v0.1h-0.3
	l-0.1,0.4c-0.2,0.5-0.2,1.1-0.1,1.6c0,1.3,0.3,2.5,0.9,3.7l0.1,0.5l0.3,0.1v0.3l0.3,0.1v0.3l0.5,0.4l0.8,0.9h0.3l0.3,0.4l0.5,0.1
	v0.1h0.3v0.1l0.8,0.3v0.1l1.2,0.3v0.1l1.5,0.1c1,0.2,2.1,0.3,3.1,0.1v-0.1h0.8v-0.1h0.7v-0.1h0.5c0.7-0.4,1.4-0.6,2.2-0.8
	c0.1,0.2,0.1,0.4,0.1,0.7l-0.5,0.3l-0.1,0.3h-0.3l-0.1,0.3h-0.3c0,0.1-0.1,0.2-0.1,0.3l-0.5,0.1l-0.1,0.3l-0.5,0.1v0.1l-0.8,0.3v0.1
	h-0.4v0.1h-0.3v0.1h-0.4V38h-0.4v0.1h-0.4v0.1h-0.4v0.1l-1.2,0.1v0.1H103c-1.5,0.1-3-0.2-4.3-0.7l-1.6-0.5l-0.1-0.3l-0.5-0.1
	l-0.3-0.4h-0.3L95.3,36c-1.3-1.1-2.3-2.7-2.7-4.3V31h-0.1v-0.7h-0.1v-1.5h-0.1c0-0.9,0.1-1.9,0.1-2.8h0.1v-0.8l0.9-3h0.1v-0.3
	l0.3-0.1l0.3-0.8l0.3-0.1v-0.3l2-2.2h0.3l0.3-0.4h0.3l0.1-0.3l2.2-0.9C99.9,16.7,100.2,16.6,100.6,16.5L100.6,16.5z M125.9,25.7
	c-0.3,0.6-0.3,1.3-0.3,1.9h0.1v1.4h0.1v0.7h0.1v0.5h0.1v0.4h0.1V31h0.1v0.3h0.1c0.1,0.3,0.2,0.5,0.3,0.8l0.3,0.1v0.3l0.4,0.3V33
	l0.3,0.1l0.5,0.7h0.3l0.4,0.5l0.5,0.1c0,0.1,0.1,0.2,0.1,0.3h0.3v0.1l0.5,0.1v0.1h0.4v0.1h0.3v0.1l0.9,0.1v0.1h0.5
	c1.3,0.3,2.6,0.4,3.9,0.3v-0.1l1.6-0.1v-0.1h0.4v-0.1h0.4v-0.1h0.4v-0.1h0.4c0.3-0.2,0.6-0.4,0.9-0.4c0.1,0.2,0.2,0.3,0.3,0.5H141
	c-0.4,0.5-0.9,0.9-1.5,1.1c0,0.1-0.1,0.2-0.1,0.3l-0.5,0.1v0.1h-0.3v0.1l-0.5,0.1c-1.6,1-3.4,1.5-5.3,1.5h-1.9v-0.1l-1.5-0.1v-0.1
	h-0.4v-0.1h-0.4V38h-0.4v-0.1h-0.4v-0.1h-0.3v-0.1l-0.8-0.3l-0.1-0.3h-0.3c-0.5-0.4-1-0.9-1.5-1.4l-0.5-0.4V35l-0.4-0.3v-0.3
	l-0.3-0.1c0-0.2-0.1-0.4-0.1-0.5h-0.1c-0.1-0.3-0.2-0.5-0.3-0.8h-0.1c-0.1-0.4-0.2-0.8-0.3-1.2h-0.1v-0.5h-0.1v-0.5h-0.1l-0.1-4.2
	l0.8-3.5h0.1c0-0.2,0.1-0.4,0.1-0.5h0.1v-0.3h0.1v-0.3h0.1v-0.3l0.3-0.3v-0.3L124,21v-0.3l0.3-0.1v-0.3l0.5-0.4v-0.3l0.8-0.7
	c0-0.1,0.1-0.2,0.1-0.3h0.3l0.4-0.5h0.3l0.1-0.3h0.3c0-0.1,0.1-0.2,0.1-0.3l1.2-0.4V17h0.3v-0.1l0.9-0.1c3.2-1.1,6.6,0.9,8.4,2.2
	l1.1,1.2c0.5,0.5,1,1,1.4,1.5v0.3l0.3,0.1c0.2,0.3,0.3,0.7,0.3,1.1l-0.4,0.1c-0.7,0.3-1.4,0.5-2.2,0.7H138v0.1h-0.7
	c-1.7,0.5-3.9,0.6-5.7,1.1h-1.1v0.1h-1.4v0.1h-1.5v0.1h-1.5v0.1L125.9,25.7L125.9,25.7z M213.5,37.7c-0.3,0.1-0.8,0.2-1.1,0.3
	c-0.3,0-0.6,0-0.9-0.1H204l-1.6,0.1v-0.1h-0.7c-0.2-0.3-0.3-0.6-0.3-0.9c0.8-0.4,2.5-0.3,3.8-0.3c0.6-1.1,0.3-3.5,0.3-5V20.1
	l-0.5-1.6c-0.4-0.6-2.4-0.4-3.3-0.5c-0.1-0.3-0.1-0.5-0.1-0.8h0.1V17h0.7v-0.1h5v-0.1h0.8v-0.1c0.4-0.1,0.8,0,1.1-0.1v0.1
	c0.3,0.2,0.3,0.3,0.3,0.8h0.1v0.9c-0.2,1.3-0.2,2.7-0.1,4.1l-0.1,11.8h0.1v1.1h0.1l0.1,0.8c0.1,0.1,0.3,0.3,0.4,0.4h2.2v0.1h0.8
	C213.4,37,213.5,37.4,213.5,37.7L213.5,37.7z M60.1,19.7c0.5-0.1,1-0.3,1.4-0.5l0.3-0.4H62l0.1-0.3h0.3l0.1-0.3l0.4-0.1V18h0.3v-0.1
	l0.8-0.3v-0.1l0.8-0.1v-0.1h0.5V17h0.8v0.1h0.5v0.1H67v0.1h0.4v0.1h0.3l0.1,0.3H68l1.1,1.2c0,0.8-0.1,1.5-0.5,2.2v0.4h-0.1
	c0,0.2-0.1,0.5-0.3,0.7h-0.5c-0.6-0.8-1.3-1.4-2.2-1.9h-0.5c-1.7-0.5-3.5,0-4.6,1.4c-0.3,0.9-0.4,1.9-0.3,2.8v6.1
	c0,1.5-0.4,5.1,0.5,5.7c0.6,0.5,2.8,0.2,3.7,0.4h0.9v0.1h0.1v0.8c-1.2,0.2-2.4,0.3-3.7,0.1c-0.4-0.4-2-0.1-2.7-0.1
	c-0.3,0-0.3-0.1-0.3-0.1c-0.5-0.1-1,0-1.5,0.1l-4.5,0.1c-0.1-0.3-0.1-0.6-0.1-0.9c0.1,0,0.1-0.1,0.1-0.1l3.1-0.1
	c0.6-1.1,0.3-3.6,0.3-5.1V19.6H56v-0.7c-0.3-0.1-0.5-0.3-0.7-0.5l-2.8-0.1c-0.1-0.4-0.1-0.8,0-1.2l1.6-0.1c1.3,0.2,2.7,0.3,4.1,0.1
	c0.5-0.2,1.1-0.2,1.6-0.3C60.1,17.7,60.2,18.7,60.1,19.7L60.1,19.7z M272.6,36v0.4l-1.4,1.2l-0.1,0.3h-0.3l-0.3,0.4h-0.3v0.1
	c-0.1,0.1-0.3,0.2-0.4,0.3c-0.7,0-1.3-0.2-1.9-0.5l-0.4-0.5h-0.3l-0.7-0.8l-0.3-0.1v-0.3l-0.4-0.3v-0.3l-0.4-0.3
	c-0.3-0.4-0.1-0.6-0.8-0.7c-0.3,0.3-0.6,0.5-0.9,0.7c-0.1,0.1-0.2,0.3-0.3,0.4h-0.3l-0.3,0.4h-0.3c0,0.1-0.1,0.2-0.1,0.3h-0.3
	l-0.1,0.3l-0.5,0.1c0,0.1-0.1,0.2-0.1,0.3h-0.3v0.1l-0.5,0.1v0.1h-0.4v0.1H260V38l-0.8,0.1v0.1h-0.5c-0.6,0.3-1.3,0.3-2,0.3v-0.1
	l-1.2-0.1v-0.1l-0.8-0.3l-0.8-1.1v-0.4h-0.1l-0.1-2h0.1v-0.9h0.1v-0.5h0.1v-0.4h0.1v-0.3h0.1v-0.4l0.3-0.1c0-0.2,0.1-0.4,0.1-0.5
	l0.4-0.3v-0.3l0.5-0.4l0.8-0.9h0.3l0.1-0.3l0.4-0.1v-0.1l0.8-0.3v-0.1h0.3v-0.1l0.8-0.3v-0.1h0.4v-0.1h0.3v-0.1l0.8-0.1v-0.1h0.4V27
	h0.4v-0.1h0.4v-0.1h0.4v-0.1h0.4v-0.1l0.9-0.1v-0.1l0.9-0.1l0.1-0.3l0.3-0.1V21c-0.1-0.4-0.3-0.8-0.4-1.2h-0.1l-0.5-0.7
	c-0.2,0-0.4-0.1-0.5-0.3c-1.1-0.2-2.2-0.2-3.3,0h-0.8c-0.5,0.3-1.1,0.5-1.6,0.7c0,1.6-0.6,3.9-1.8,4.2v0.1h-0.9
	c-0.3-0.4-0.5-1-0.4-1.5h0.1c0-0.3,0.1-0.5,0.1-0.8h0.1c0-0.2,0.1-0.4,0.1-0.5h0.1v-0.3l0.3-0.1v-0.3l0.4-0.3v-0.3l0.9-0.8l0.1-0.3
	h0.3l0.3-0.4h0.3l0.1-0.3h0.3v-0.1l0.8-0.3v-0.1l1.2-0.3V17l1.8-0.1v-0.1c0.5-0.1,0.9,0,1.4,0.1h1.2V17h0.5v0.1l1.2,0.3l1.6,1.2v0.3
	l0.3,0.1c0,0.2,0.1,0.4,0.1,0.5h0.1v0.3h0.1c0.2,1.1,0.3,2.2,0.1,3.2v7.2c-0.1,1-0.1,2.1,0.1,3.1h0.1c0.1,0.3,0.2,0.5,0.3,0.8
	l0.3,0.1C270.3,35.2,271.4,35.7,272.6,36z M148.6,18.5l-0.1,0.5h-0.1c-0.1,0.4,0,0.8,0.1,1.2c0.1,0.5,0.2,0.9,0.3,1.4h0.1l0.1,0.5
	h0.1v0.4h0.1v0.3h0.1l0.1,0.5h0.1v0.4h0.1v0.3h0.1l0.1,0.5h0.1V25h0.1l0.1,0.5h0.1V26h0.1c0,0.2,0.1,0.4,0.1,0.5h0.1v0.4h0.1
	l0.1,0.5h0.1v0.4h0.1v0.3h0.1c0,0.2,0.1,0.5,0.1,0.7h0.1v0.4h0.1v0.3h0.1v0.4h0.1v0.3h0.1v0.4h0.1v0.3h0.1v0.4h0.1
	c0.1,0.3,0.2,0.5,0.3,0.8h0.1v0.3h0.1c0.1,0.2,0.2,0.3,0.3,0.5h0.4v-0.1h0.1v-0.1h0.1v-0.3h0.1v-0.3h0.1v-0.3h0.1v-0.4h0.1V31h0.1
	v-0.3h0.1v-0.4h0.1c0-0.3,0.1-0.5,0.1-0.8h0.1v-0.4h0.1v-0.4h0.1v-0.4h0.1v-0.4h0.1v-0.4h0.1l0.1-0.8h0.1l0.1-0.8h0.1
	c0.1-0.4,0.2-0.8,0.3-1.2h0.1v-0.4h0.1v-0.4h0.1v-0.4h0.1V23h0.1v-0.4h0.1c0.1-0.5,0.2-0.9,0.3-1.4h0.1v-0.5h0.1v-2
	c-0.1-0.1-0.2-0.2-0.3-0.3h-0.3v-0.1c-0.8-0.3-2.2,0.3-2.8-0.3h-0.1v-0.7c0.2-0.2,0.1,0,0.1-0.3h0.5v-0.1l3.7,0.1h1.9v-0.1h2.4
	c0.1,0.3,0.1,0.6,0.1,0.9c-0.6,0.2-1.2,0.4-1.8,0.5l-0.4,0.7h-0.1v0.3l-0.3,0.3v0.3H161v0.3l-0.3,0.1c0,0.2-0.1,0.5-0.1,0.7h-0.1
	v0.3h-0.1v0.3h-0.1c-0.1,0.3-0.2,0.5-0.3,0.8h-0.1v0.4h-0.1c0,0.2-0.1,0.4-0.1,0.5h-0.1v0.4h-0.1c0,0.2-0.1,0.4-0.1,0.5H159v0.4
	h-0.1v0.3h-0.1v0.4h-0.1l-0.1,0.5h-0.1v0.4h-0.1v0.3h-0.1c0,0.2-0.1,0.5-0.1,0.7h-0.1v0.4h-0.1v0.3h-0.1v0.4h-0.1v0.3h-0.1v0.4
	c-2.2,4.8-4.1,10.1-6.5,14.6v0.3h-0.1v0.3h-0.1v0.3h-0.1v0.3h-0.1v0.3h-0.1c-0.1,0.3-0.2,0.5-0.3,0.8h-0.1c-0.1,0.3-0.2,0.5-0.3,0.8
	h-0.1l-0.1,0.5H149l-0.1,0.5h-0.1v0.3h-0.1v0.3h-0.1v0.3h-0.1v0.3h-0.1V49H148v0.3h-0.1v0.3h-0.1v0.3h-0.1v0.3h-0.1v0.3h-0.1
	l-0.1,0.3h-0.3l-0.1,0.3h-0.5c-0.4,0.3-0.9,0.1-1.5,0.3c-0.7,0.2-2.9,1-3.7,0.3H141V51l1.5-0.5v-0.1h0.3v-0.1h0.3l0.1-0.3l0.5-0.1
	l0.4-0.5h0.3l0.4-0.5h0.1v-0.3l0.5-0.4v-0.3l0.4-0.3v-0.3l0.5-0.4v-0.3l0.3-0.1v-0.3l0.4-0.3c0-0.1,0.1-0.3,0.1-0.4l0.3-0.1V45
	l0.3-0.1v-0.3l0.4-0.3v-0.3l0.3-0.1l0.1-0.4h0.1v-0.3l0.3-0.1v-0.3l0.3-0.1v-0.3l0.3-0.1v-0.3l0.3-0.1c0-0.2,0.1-0.4,0.1-0.5
	l0.3-0.1c0-0.2,0.1-0.4,0.1-0.5l0.3-0.1v-0.3l0.3-0.3v-0.3h0.1v-0.3c0.3-0.4,0.5-0.9,0.4-1.4h-0.1v-0.4h-0.1v-0.3H151l-0.1-0.8h-0.1
	l-0.1-0.7h-0.1l-0.1-0.5h-0.1V35h-0.1v-0.3h-0.1c0-0.2-0.1-0.5-0.1-0.7h-0.1v-0.4h-0.1l-0.1-0.5h-0.1v-0.4h-0.1
	c0-0.2-0.1-0.4-0.1-0.5h-0.1c0-0.2-0.1-0.5-0.1-0.7h-0.1v-0.4h-0.1c0-0.2-0.1-0.4-0.1-0.5h-0.1v-0.4H148l-0.1-0.5h-0.1v-0.4h-0.1
	c0-0.2-0.1-0.4-0.1-0.5h-0.1v-0.4h-0.1c0-0.2-0.1-0.4-0.1-0.5h-0.1v-0.4h-0.1l-0.1-0.5h-0.1v-0.4h-0.1v-0.3h-0.1v-0.4h-0.1
	c0-0.2-0.1-0.4-0.1-0.5h-0.1v-0.4h-0.1c0-0.2-0.1-0.4-0.1-0.5h-0.1v-0.4h-0.1l-0.1-0.5H145v-0.4h-0.1c0-0.2-0.1-0.4-0.1-0.5h-0.1
	v-0.4h-0.1c0-0.2-0.1-0.4-0.1-0.5h-0.1V21h-0.1l-0.1-0.5h-0.1v-0.3h-0.1v-0.3h-0.1v-0.3l-0.3-0.3v-0.3l-0.3-0.1
	c0-0.1-0.1-0.3-0.1-0.4h-0.3c-0.5-0.3-1.2-0.4-1.8-0.3c-0.1-0.3-0.1-0.6,0-0.9l0.4-0.1c0.9-0.2,1.9-0.2,2.8-0.1c1,0.1,2.1,0.1,3.1,0
	h1.9v-0.1l1.8,0.1c0.2,0.3,0.3,0.7,0.3,1.1H151v0.1C150.2,18.2,149.4,18.3,148.6,18.5z M244,19.7c0.4,0,0.9-0.1,1.2-0.4l0.3-0.4h0.3
	l0.1-0.3h0.3l0.1-0.3h0.3l0.1-0.3l0.5-0.1l0.1-0.3h0.4v-0.1h0.3v-0.1h0.4v-0.1c0.8-0.2,1.5-0.2,2.3,0v0.1h0.4l1.5,1.1v0.3h0.1
	c0.1,0.1,0.2,0.3,0.3,0.4c0,0.8-0.3,1.6-0.7,2.3l-0.1,0.7h-0.1c-0.1,0.2-0.2,0.3-0.4,0.3c-0.2-0.2-0.3-0.3-0.5-0.4v-0.3l-0.3-0.1
	l-0.3-0.4h-0.3l-0.3-0.4l-0.5-0.1v-0.1h-0.3v-0.1h-0.7c-1.1-0.2-2.3-0.1-3.4,0.4c0,0.1-0.1,0.2-0.1,0.3h-0.3l-0.3,0.3v0.3l-0.3,0.1
	c-0.2,0.5-0.3,1.1-0.3,1.6h-0.1v6.9c0,1.7-0.3,5.5,0.7,6.1v0.1h0.4v0.1h1.5l2.7,0.1c0.1,0.3,0.1,0.6,0.1,0.9
	c-1.1,0.2-2.2,0.2-3.3,0.1c-0.5-0.5-1.9,0.1-2.7-0.1v-0.1h-2.4v0.1l-4.2,0.1c-0.1-0.3-0.1-0.6-0.1-0.9h0.1v-0.1c0.9,0,2-0.1,3.1-0.1
	c0.6-1.1,0.3-3.6,0.3-5.1V19.6c-0.3-0.3-0.1-0.6-0.5-0.9c-0.6-0.6-2.4,0.1-3-0.4h-0.1v-1.1c1.3-0.2,2.5-0.3,3.8-0.1
	c0.4,0.2,0.8,0.2,1.2,0.1c0.8-0.2,1.6-0.3,2.4-0.3c0.1,0.7,0.2,1.4,0.1,2h-0.1L244,19.7z M280.9,19.7h0.5c0.3-0.4,0.8-0.6,1.2-0.8
	c0-0.1,0.1-0.2,0.1-0.3h0.3l0.1-0.3h0.3l0.1-0.3l0.5-0.1c0-0.1,0.1-0.2,0.1-0.3l0.7-0.1v-0.1h0.3v-0.1h0.5v-0.1
	c0.6-0.1,1.3,0,1.9,0.1v0.1h0.3v0.1l0.8,0.3l0.3,0.4h0.3l0.3,0.3v0.3l0.3,0.1c0,0.3,0.1,0.6,0.1,0.9h-0.1l-0.1,0.9h-0.1v0.4h-0.1
	v0.3h-0.1c-0.2,0.3-0.3,0.7-0.4,0.9c-0.3-0.1-0.1,0-0.3-0.1c-0.6-0.3-1.1-0.7-1.5-1.2l-0.1-0.3l-1.5-0.5c-0.5-0.1-1,0-1.5,0.1h-0.8
	v0.1h-0.5l-1.2,0.8c-0.8,1-0.7,2.8-0.7,4.6c0,3.4-0.3,7.4,0.3,10.3l0.4,0.1v0.1h0.4v0.1h1.4l2.7,0.1c0.2,0.2,0.3,0.5,0.3,0.8
	c-0.2,0.2-0.1,0-0.1,0.3l-8.3-0.3v0.1l-4.2,0.1c-0.1-0.3-0.1-0.6-0.1-0.9h0.1v-0.1c0.9-0.1,2-0.1,3.1-0.1c0.6-1.1,0.3-3.6,0.3-5.1
	V19.7h-0.1v-0.7c0,0-0.1,0-0.1-0.3l-0.4-0.1v-0.1H276v-0.1c-0.9-0.3-2.4,0.5-2.7-0.4h-0.1c0-0.3,0.1-0.7,0.3-0.9h3.7
	c0.4,0.2,0.8,0.2,1.2,0.1c0.8-0.2,1.6-0.3,2.4-0.3c0.1,0.6,0.2,1.2,0.1,1.8C280.7,19,280.7,19.4,280.9,19.7z M297.1,50.5l-0.4,0.1
	v0.1h-0.4v0.1l-1.5,0.1c-0.6,0.2-2.3,0.9-3.1,0.7v-0.1l-0.8-0.1c0-0.1-0.1-0.3-0.1-0.4c1.2-0.5,2.3-1.1,3.4-1.8v-0.1l0.5-0.4v-0.3
	l0.5-0.4v-0.3l0.5-0.4v-0.3l0.4-0.3v-0.3l0.4-0.3V46l0.4-0.3v-0.3l0.3-0.1V45l0.4-0.3v-0.3l0.3-0.1c0-0.1,0.1-0.3,0.1-0.4h0.1v-0.3
	l0.4-0.3v-0.3l0.3-0.1v-0.3l0.3-0.1c0-0.2,0.1-0.4,0.1-0.5l0.3-0.1l0.1-0.4h0.1L300,41l0.3-0.1v-0.3l0.3-0.3V40h0.1v-0.3h0.1v-0.3
	c0.3-0.4,0.5-1,0.4-1.5h-0.1v-0.4h-0.1v-0.3h-0.1v-0.4h-0.1v-0.3h-0.1c0-0.2-0.1-0.5-0.1-0.7h-0.1v-0.4h-0.1v-0.3H300v-0.4h-0.1
	v-0.3h-0.1v-0.4h-0.1c0-0.2-0.1-0.4-0.1-0.5h-0.1v-0.4h-0.1l-0.1-0.5h-0.1c0-0.2-0.1-0.5-0.1-0.7h-0.1v-0.4h-0.1l-0.1-0.5h-0.1v-0.4
	h-0.1c0-0.2-0.1-0.4-0.1-0.5h-0.1v-0.4h-0.1l-0.1-0.5h-0.1v-0.4h-0.1v-0.3h-0.1v-0.4H297l-0.1-0.5h-0.1v-0.4h-0.1
	c0-0.2-0.1-0.4-0.1-0.5h-0.1v-0.4h-0.1l-0.1-0.5h-0.1v-0.4h-0.1l-0.1-0.5h-0.1v-0.4h-0.1c0-0.2-0.1-0.4-0.1-0.5h-0.1v-0.4H295
	l-0.1-0.5h-0.1v-0.4h-0.1v-0.3h-0.1v-0.4h-0.1l-0.1-0.5H294v-0.4h-0.1v-0.3h-0.1v-0.3h-0.1V20h-0.1v-0.3h-0.1
	c-0.3-0.5-0.3-1-0.9-1.2c-0.8-0.6-1.7,0.6-1.8-1.1l0.3-0.1c0.7-0.3,1.4-0.4,2.2-0.3c2.2,0.6,5.4-0.3,7.7,0.1
	c0.1,0.3,0.1,0.6,0.1,0.9l-0.4,0.1v0.1h-1.8c-0.1,0.1-0.2,0.1-0.3,0.1l-0.1,0.4c-0.4,0.4-0.1,2,0.1,2.6h0.1v0.3h0.1v0.4h0.1
	c0,0.2,0.1,0.4,0.1,0.5h0.1v0.4h0.1l0.1,0.5h0.1v0.3h0.1v0.4h0.1l0.1,0.5h0.1v0.4h0.1v0.3h0.1c0,0.2,0.1,0.4,0.1,0.5h0.1v0.4h0.1
	v0.3h0.1v0.4h0.1l0.1,0.5h0.1v0.4h0.1v0.3h0.1c0,0.2,0.1,0.5,0.1,0.7h0.1v0.4h0.1v0.3h0.1v0.4h0.1v0.3h0.1v0.4h0.1v0.3h0.1v0.4h0.1
	v0.3l0.3,0.1c0.3,0.5,0.1,0.8,0.9,0.9l0.1-0.4h0.1v-0.4h0.1l0.1-0.5h0.1v-0.4h0.1c0-0.3,0.1-0.5,0.1-0.8h0.1c0-0.3,0.1-0.5,0.1-0.8
	h0.1v-0.4h0.1v-0.4h0.1v-0.4h0.1v-0.4h0.1v-0.4h0.1V27h0.1l0.1-0.8h0.1V26h0.1c0.1-0.6,0.3-1.2,0.4-1.8h0.1v-0.4h0.1v-0.4h0.1V23
	h0.1v-0.4h0.1l0.1-0.8h0.1v-0.5h0.1v-0.4h0.1v-2.2l-0.3-0.1c-0.4-0.4-2.4-0.3-3.1-0.4c-0.1-0.2-0.1-0.4-0.1-0.7
	c0.2-0.2,0.1,0,0.1-0.3c1.2-0.2,2.4-0.3,3.7-0.1c0.5,0.2,1,0.2,1.5,0.1c1.1-0.3,2.3-0.3,3.4-0.1c0.1,0.3,0.1,0.5,0.1,0.8
	c-0.1,0.1-0.2,0.2-0.3,0.3H313v0.1H312l-0.1,0.3l-0.5,0.4v0.3l-0.3,0.1c0,0.2-0.1,0.4-0.1,0.5h-0.1v0.3h-0.1v0.3h-0.1v0.3h-0.1V21
	h-0.1c-0.1,0.3-0.2,0.5-0.3,0.8h-0.1v0.4h-0.1v0.3h-0.1v0.3h-0.1V23h-0.1v0.4h-0.1c0,0.2-0.1,0.4-0.1,0.5h-0.1v0.4h-0.1v0.3h-0.1V25
	h-0.1l-0.1,0.5h-0.1V26h-0.1v0.3H308c0,0.2-0.1,0.5-0.1,0.7h-0.1v0.4h-0.1l-0.1,0.5h-0.1v0.4h-0.1v0.3H307l-0.1,0.7h-0.1v0.4h-0.1
	v0.3h-0.1v0.4h-0.1l-0.1,0.7h-0.1v0.3h-0.1v0.4h-0.1l-0.1,0.5h-0.1v0.4h-0.1v0.3h-0.1v0.4h-0.1l-0.1,0.7h-0.1v0.3h-0.1v0.4h-0.1
	l-0.1,0.5h-0.1v0.4h-0.1l-0.1,0.5h-0.1v0.4h-0.1c0,0.2-0.1,0.4-0.1,0.5h-0.1v0.4h-0.1l-0.1,0.5h-0.1v0.4H303v0.3h-0.1V39h-0.1v0.3
	h-0.1v0.4h-0.1v0.3h-0.1c-0.1,0.3-0.2,0.5-0.3,0.8h-0.1v0.4h-0.1c-0.1,0.3-0.2,0.5-0.3,0.8h-0.1v0.3h-0.1v0.3h-0.1v0.3h-0.1V43h-0.1
	v0.3h-0.1v0.3h-0.1V44h-0.1l-0.3,0.8H300V45h-0.1v0.3h-0.1v0.3h-0.1v0.3h-0.1c-0.3,0.7-0.6,1.4-0.9,2.2h-0.1v0.3h-0.1v0.3h-0.1v0.3
	h-0.1v0.3h-0.1v0.3h-0.1l-0.1,0.5h-0.1C297.3,50.1,297.2,50.3,297.1,50.5L297.1,50.5z M40.5,17.6v0.1H40v0.1l-0.8,0.3v0.1h-0.3
	l-0.3,0.4L38,19.2v0.3l-0.4,0.3l-0.1,0.5c-0.8,1.2-1.3,2.6-1.4,4.1c0.4,0.1,0.8,0.2,1.2,0.1c0.4-0.3,1.2,0,1.8-0.1
	c1.6-0.5,3.5-0.5,5-0.9h0.8v-0.1c0.6-0.2,1.1,0.1,1.5-0.3h0.1V22c-0.1-0.1-0.2-0.3-0.3-0.5h-0.1v-0.3H46l-0.1-0.4l-0.3-0.1v-0.3
	l-1.1-0.9C43.4,18.4,42.7,17.6,40.5,17.6L40.5,17.6z M100.7,17.6v0.1l-0.9,0.1V18h-0.3l-0.1,0.3h-0.3l-0.3,0.4L98,19.3v0.3l-0.3,0.1
	l-0.1,0.4h-0.1l-0.1,0.5c-0.7,1.1-1,2.4-1.1,3.7c0.4,0.1,0.8,0.2,1.2,0.1c0.4-0.3,1.2,0,1.8-0.1c1.6-0.5,3.5-0.5,5-0.9h0.8v-0.1
	c0.6-0.2,1.1,0.1,1.5-0.3h0.1v-0.8h-0.1c0-0.2-0.1-0.5-0.1-0.7l-0.3-0.1v-0.3H106v-0.3l-0.4-0.3v-0.3l-0.8-0.7
	C103.7,18.5,102.9,17.6,100.7,17.6L100.7,17.6z M125.9,24.3c1.6,0.2,3.3,0,4.9-0.4l1.6-0.1c1.2-0.4,2.8-0.6,4.1-0.8
	c0-0.7-0.3-1.4-0.7-2l-0.3-0.1v-0.3l-0.5-0.4v-0.3l-0.8-0.7l-0.1-0.3h-0.3l-0.4-0.5l-0.5-0.1c0-0.1-0.1-0.2-0.1-0.3h-0.3v-0.1H132
	v-0.1l-1.6-0.1v0.1h-0.5v0.1h-0.3V18l-0.5,0.1l-0.3,0.4h-0.3l-0.4,0.5H128v0.3l-0.4,0.3l-0.1,0.5l-0.3,0.1l-0.4,1.2h-0.1v0.3h-0.1
	v0.4C126.2,22.9,126,23.6,125.9,24.3L125.9,24.3z M12.5,19.7v0.1h-0.4l-0.1,0.3h-0.1v0.3h-0.1v13.1h0.1v1.1h0.1v0.8h0.1l0.1,0.7
	l0.4,0.3v0.1l0.8,0.3v0.1h0.4v0.1l1.6,0.1v0.1c1.1,0.1,2.2,0,3.3-0.3h0.5v-0.1h0.4v-0.1h0.3v-0.1h0.4v-0.1h0.3v-0.1h0.3l0.1-0.3h0.3
	l0.1-0.3h0.3l0.3-0.4l0.9-0.8v-0.3l0.3-0.1v-0.3l0.3-0.1l0.3-0.8h0.1v-0.3H24v-0.4h0.1v-0.4h0.1v-0.7h0.1v-0.8h0.1
	c0.1-1.3,0-2.6-0.3-3.8h-0.1v-0.5H24v-0.3h-0.1v-0.4h-0.1v-0.3h-0.1v-0.3l-0.3-0.1l-0.1-0.5l-0.3-0.1v-0.3l-0.4-0.3v-0.3l-0.3-0.1
	l-0.7-0.8h-0.3l-0.4-0.5h-0.3l-0.1-0.3h-0.3l-0.1-0.3l-0.5-0.1V21l-0.8-0.3v-0.1h-0.4v-0.1h-0.4v-0.1h-0.4v-0.1h-0.5V20h-0.5v-0.1
	L12.5,19.7z M225.8,19.7c-0.3,0.3-1,0-1.5,0.1V20l-1.4,0.1v0.1h-0.5v0.1H222v0.1h-0.4v0.1h-0.4v0.1l-0.5,0.1v0.1
	c-0.3,0.1-0.6,0.3-0.8,0.5h-0.1v13h0.1v0.3h0.1l0.8,0.9l0.5,0.1c0,0.1,0.1,0.2,0.1,0.3h0.3v0.1h0.4v0.1h0.3v0.1l0.9,0.1
	c1.3,0.4,2.6,0.5,3.9,0.1h0.7v-0.1l0.8-0.1v-0.1l0.8-0.3v-0.1h0.3V36l0.5-0.1v-0.1l0.4-0.1l0.1-0.3h0.3l0.1-0.3l0.5-0.4v-0.3
	l0.3-0.1c0-0.2,0.1-0.4,0.1-0.5h0.1c0-0.2,0.1-0.4,0.1-0.5h0.1c0.7-2,0.9-4.1,0.5-6.2v-0.7C232.3,23.2,229.8,19.7,225.8,19.7
	L225.8,19.7z M264.7,27.3c-0.8-0.1-1.7,0-2.4,0.4h-0.4v0.1h-0.3V28h-0.4v0.1h-0.3v0.1h-0.4v0.1h-0.3v0.1H260c0,0.1-0.1,0.2-0.1,0.3
	l-0.5,0.1l-0.1,0.3h-0.3c-0.1,0.1-0.2,0.3-0.3,0.4h-0.3v0.1L258,30v0.3l-0.4,0.3l-0.1,0.7h-0.1v0.4h-0.1c-0.2,0.9-0.2,1.8,0,2.7
	c0,0.1,0.1,0.3,0.1,0.4h0.1c0.2,0.3-0.1,0.3,0.4,0.4c0.7,0.8,3.5,0.7,4.3,0.3l0.5-0.1c0-0.1,0.1-0.2,0.1-0.3h0.3l0.1-0.3h0.3
	l0.5-0.7l0.3-0.1v-0.3l0.3-0.1l0.1-0.5h0.1v-1.6C264.9,30,264.9,28.7,264.7,27.3L264.7,27.3z M28.9,43.8h4.1v1.1h-2.8v1.9h2.6v1.1
	h-2.6v1.9h3.1c-0.1,0.4-0.1,0.7-0.1,1.1h-4.2L28.9,43.8L28.9,43.8z M40.5,50.3c0.1-0.4,0.2-0.8,0.4-1.1c1,0.4,1.5,0.9,2.7,0.4
	c0.2-0.3,0.3-0.6,0.3-0.9c-0.2-0.2-0.1,0-0.1-0.3c-0.3-0.1-0.7-0.4-0.9-0.5h-0.3v-0.1h-0.3v-0.1l-0.5-0.1l-0.8-0.9
	c-0.1-0.5-0.1-1,0.1-1.5c0.1-0.5,0.5-0.8,0.9-0.9c0.7-0.7,2.5,0,3.1,0.3c-0.1,0.3,0,0.1-0.1,0.3c-0.1,0.2-0.1,0.5-0.3,0.7
	c-0.7-0.3-1.4-0.5-2.2-0.4c-0.3,0.3-0.4,0.8-0.4,1.2l0.8,0.7l1.4,0.4l0.8,0.9c0.2,0.5,0.1,1-0.1,1.5c-0.1,0.5-0.5,0.8-0.9,0.9
	c-0.3,0.3-0.1,0-0.4,0.1v0.1h-0.5V51C42.3,51.2,41.1,50.5,40.5,50.3L40.5,50.3z M66.6,43.8h1.8c0.3,0.2,0.6,0.3,0.9,0.4l0.5,0.7h0.1
	v0.3h0.1v0.3h0.1v0.4h0.1c0.6,1.8-0.2,4.4-1.5,4.7v0.1h-0.4c-1,0.4-1.4,0.1-2.4,0v-0.1l-0.4-0.1l-0.4-0.5h-0.1l-0.1-0.5h-0.1v-0.3
	h-0.1v-0.4h-0.1v-0.8h-0.1v-1.1h0.1V46h0.1v-0.4h0.1l0.1-0.5h0.1v-0.3l1.1-0.8h0.4L66.6,43.8L66.6,43.8z M72,43.8H76v1.1h-2.8v1.9
	h2.6v1.1h-2.6v3H72L72,43.8L72,43.8z M86.1,50.1c-0.2,0-0.4,0.1-0.5,0.3v0.1L85,50.6v0.1c-0.7,0.3-2.3,0.4-2.8-0.1
	c-1.5-0.3-2.1-3.4-1.4-5.1l0.8-1.1h0.3v-0.1c0.1-0.1,0.3-0.2,0.4-0.3l2.2-0.1c0.5,0.2,1,0.5,1.5,0.8c-0.2,0.3-0.3,0.6-0.5,0.8
	l-0.5-0.1L84.7,45c-0.7-0.2-1.4-0.2-2,0l-0.4,0.5h-0.1c0,0.2-0.1,0.4-0.3,0.5l-0.1,1.6c0.1,0.4,0.3,1,0.4,1.5
	c0.2,0.2,0.4,0.3,0.7,0.4c0.4,0.3,0.8,0.4,1.2,0.3v-0.1h0.4v-0.1h0.3v-0.1H85c0.1-0.2,0.3-0.3,0.5-0.4v0.1
	C85.8,49.4,86,49.7,86.1,50.1L86.1,50.1z M93,50.9h-1.2v-0.1h-0.1c-0.1-0.7-0.3-0.9-0.4-1.5h-2.8l-0.5,1.6h-1.1
	c0.1-0.8,0.4-1.6,0.8-2.3v-0.4h0.1v-0.4h0.1v-0.4H88v-0.4h0.1v-0.3h0.1l0.1-0.8c0.3-0.6,0.5-1.2,0.7-1.9c0.5,0,1,0,1.5-0.1v0.3h0.1
	l0.1,0.8H91v0.4h0.1v0.3h0.1V46h0.1v0.4h0.1l0.3,1.2h0.1v0.3H92v0.4h0.1l0.3,1.2h0.1v0.3h0.1C92.8,50.1,92.9,50.5,93,50.9L93,50.9z
	 M102.1,43.8h3.9c0.1,0.3,0.2,0.7,0.1,1.1h-2.8v1.9h2.6v0.9c-0.8,0.2-1.7,0.2-2.6,0.1v3h-1.2L102.1,43.8L102.1,43.8z M109,43.8
	c1.5,0,3,0.1,3.3,1.2c1,0.9,0.7,3.9,0,4.9h-0.1l-0.4,0.5h-0.3v0.1c-0.2,0-0.4,0.1-0.5,0.3l-1.5,0.1l-1.2-0.4l-0.7-0.8h-0.1l-0.1-0.5
	h-0.1c-0.4-1.4-0.3-3,0.3-4.3l0.9-0.8L109,44L109,43.8L109,43.8z M5.6,44h1.2v3.8l0.1,1.6l0.4,0.3c0.4,0.2,0.8,0.3,1.2,0.3
	c0.3-0.3,0.5-0.1,0.7-0.7c0.2-0.5,0.2-1,0.1-1.5V44h1.4c0,2.2,0.5,6.2-1.2,6.6C8.7,51,7.8,51.1,7,50.7c-0.6-0.1-1.1-0.5-1.2-1.1
	c-0.3-0.5-0.4-1.2-0.3-1.8L5.6,44L5.6,44z M12.3,44h1.2l0.1,0.4l0.3,0.1v0.3l0.3,0.1l0.1,0.5l0.3,0.1v0.3l0.3,0.1v0.3H15v0.3
	l0.3,0.1l0.1,0.5l0.3,0.1c0.2,0.3,0.3,0.6,0.4,0.9h0.1V44h1.4v6.8c-0.4,0.1-0.8,0.2-1.2,0.1l-2.7-4.5h-0.1v4.5h-1.2L12.3,44L12.3,44
	z M19.2,44h1.2v6.9h-1.2V44z M21.7,44h1.2c0,0.1,0.1,0.1,0.1,0.1c0.1,0.7,0.3,1.4,0.7,2c0.4,1,0.5,2.1,0.9,3.1h0.1
	c0-0.5,0.2-0.9,0.4-1.4v-0.4h0.1v-0.4h0.1v-0.4h0.1v-0.4h0.1v-0.4h0.1v-0.4c0.2-0.5,0.4-1,0.5-1.5h1.2l-2.3,6.9H24
	c0-0.1-0.1-0.1-0.1-0.1c-0.1-0.6-0.3-1.1-0.5-1.6L23,47.9h-0.1v-0.3h-0.1l-0.3-1.2C22.1,45.6,21.9,44.8,21.7,44L21.7,44z M34.7,44
	h3.1v0.1l0.7,0.1c0.3,0.4,1,1.1,0.8,1.9h-0.1v0.7H39c-0.1,0.5-0.5,0.8-0.9,0.9l1.6,3.1h-1.4c-0.4-1-0.9-1.9-1.5-2.7h-0.9v2.7h-1.2
	L34.7,44L34.7,44z M46.6,44h1.2v6.9h-1.2V44z M49.2,44h4.9L54,45h-1.8v5.8H51V45h-1.8L49.2,44L49.2,44z M54.9,44h1.4
	c0.2,1.1,1,1.7,1.2,2.8c0.1,0,0.1-0.1,0.1-0.1c0.2-0.3,0.4-0.7,0.5-1.1h0.1v-0.3c0.3-0.4,0.5-0.9,0.7-1.4h1.4
	c-0.1,0.3-0.3,0.7-0.5,0.9l-0.1,0.5h-0.1L59.4,46l-0.3,0.1v0.3l-0.3,0.3v0.3h-0.1v0.3l-0.3,0.1v0.3h-0.1v3.1
	c-0.4,0.1-0.9,0.2-1.4,0.1v-3.1h-0.1v-0.3h-0.1v-0.3h-0.1v-0.3l-0.3-0.3v-0.3L56,46.3V46h-0.1v-0.3l-0.3-0.3v-0.3L55.3,45v-0.3h-0.1
	L54.9,44z M93.9,44h1.2v5.8h3c0,0.4-0.1,0.7-0.1,1.1h-4.1L93.9,44L93.9,44z M99.2,44h1.4v6.8c-0.4,0.1-0.9,0.2-1.4,0.1V44L99.2,44z
	 M113.9,44h3.1v0.1l0.7,0.1l0.7,0.9c0,1.3-0.1,2.3-1.1,2.6c0.1,0.3,0.3,0.7,0.5,0.9c0,0.2,0.1,0.4,0.1,0.5h0.1l0.1,0.5l0.3,0.1v0.3
	h0.1l0.1,0.7h-1.2c-0.4-1-0.9-1.9-1.5-2.7h-0.9v2.7h-1.2L113.9,44L113.9,44z M121,44l0.1,0.4h0.1v0.3h0.1v0.3l0.3,0.1v0.3l0.3,0.1
	v0.3h0.1V46l0.3,0.1c0,0.2,0.1,0.4,0.1,0.5l0.3,0.1v0.3l0.3,0.1l0.1,0.5l0.3,0.1l0.1,0.4h0.1V44h1.2v6.9h-1.1
	c-0.1-0.1-0.2-0.2-0.3-0.3v-0.3l-0.3-0.1c0-0.2-0.1-0.4-0.1-0.5l-0.3-0.1v-0.3l-0.3-0.1l-0.1-0.4h-0.1l-0.1-0.5L122,48v-0.3
	l-0.3-0.1l-0.1-0.5l-0.3-0.1c0-0.1-0.1-0.3-0.1-0.4h-0.1v4.2c-0.4,0.1-0.9,0.2-1.4,0.1v-6.8C120.1,44,120.6,43.9,121,44L121,44z
	 M126.5,44h1.2v6.9h-1.2V44z M132.6,44c0.8,2.3,1.5,4.6,2.3,6.9h-1.2c-0.2-0.5-0.4-1.1-0.5-1.6h-2.8c-0.2,0.5-0.4,1.1-0.5,1.6h-1.1
	c0.1-0.4,0.2-0.8,0.4-1.1c0.1-0.4,0.2-0.8,0.3-1.2h0.1v-0.3h0.1c0-0.3,0.1-0.5,0.1-0.8h0.1c0-0.3,0.1-0.5,0.1-0.8h0.1v-0.3h0.1V46
	h0.1v-0.4c0.2-0.5,0.5-1.1,0.7-1.6H132.6L132.6,44z M66.8,44.9V45h-0.3l-0.3,0.4h-0.1c-0.4,0.5-0.7,2.8-0.1,3.4
	c0,0.2,0.2,0.4,0.4,0.5l0.3,0.4h0.4c0.5,0.1,0.9,0.1,1.4-0.1c0.3-0.4,0.5-0.8,0.7-1.2c0.1-1,0-1.9-0.3-2.8L68,44.9H66.8L66.8,44.9z
	 M109.3,44.9c-0.4,0.2-0.6,0.6-0.8,0.9c-0.3,0.9-0.4,1.8-0.3,2.7h0.1v0.3h0.1c0.2,0.4,0.1,0.7,0.7,0.8c0.3,0.2,0.7,0.3,1.1,0.3v-0.1
	h0.4l0.5-0.7c0.4-0.8,0.6-1.8,0.4-2.7c-0.2-0.3-0.3-0.6-0.4-0.9c-0.3-0.1-0.5-0.3-0.7-0.5L109.3,44.9L109.3,44.9z M35.9,45v2
	c0.6,0,1.2-0.1,1.8-0.3c0.2-0.4,0.3-0.9,0.3-1.4c-0.2-0.1-0.3-0.2-0.4-0.4L35.9,45L35.9,45z M115.1,45v2c0.6,0,1.2-0.1,1.8-0.3
	c0.2-0.4,0.3-0.9,0.3-1.4c-0.2-0.1-0.3-0.2-0.4-0.4C116.7,45,115.1,45,115.1,45z M88.8,48.3h2c-0.1-0.4-0.1-0.7-0.3-1.1h-0.1v-0.3
	h-0.1v-0.4h-0.1v-0.4H90l-0.1-0.8h-0.1v0.1h-0.1L88.8,48.3z M130.7,48.3h2l-0.9-3c-0.2,0.2-0.1,0-0.1,0.3h-0.1L130.7,48.3z"/>
</svg>
