<svg xmlns="http://www.w3.org/2000/svg" width="315" height="52" viewBox="0 0 315 52">
  <metadata><?xpacket begin="﻿" id="W5M0MpCehiHzreSzNTczkc9d"?>
<x:xmpmeta xmlns:x="adobe:ns:meta/" x:xmptk="Adobe XMP Core 5.6-c138 79.159824, 2016/09/14-01:09:01        ">
   <rdf:RDF xmlns:rdf="http://www.w3.org/1999/02/22-rdf-syntax-ns#">
      <rdf:Description rdf:about=""/>
   </rdf:RDF>
</x:xmpmeta>
                                                                                                    
                                                                                                    
                                                                                                    
                                                                                                    
                                                                                                    
                                                                                                    
                                                                                                    
                                                                                                    
                                                                                                    
                                                                                                    
                                                                                                    
                                                                                                    
                                                                                                    
                                                                                                    
                                                                                                    
                                                                                                    
                                                                                                    
                                                                                                    
                                                                                                    
                                                                                                    
                           
<?xpacket end="w"?></metadata>
<defs>
    <style>
      .cls-1 {
        fill: #378443;
      }

      .cls-1, .cls-2 {
        fill-rule: evenodd;
      }
    </style>
  </defs>
  <path id="NEWS" class="cls-1" d="M328.194,36.131l-7.57-11.376h-0.982V37.273h0.8V25.917l7.631,11.476H329V24.756h-0.8V36.131Zm17.267,1.142V36.512h-6.329V31.385h5.288V30.644h-5.288V25.517h6.329V24.756h-7.17V37.273h7.17Zm15.985-11.616,3.625,11.616h0.781l3.464-12.517h-0.881l-2.964,11.215-3.485-11.215h-1.061L357.5,35.971l-3.144-11.215H353.5l3.565,12.517h0.781Zm19.11,11.075a6.312,6.312,0,0,1-3.545-1.1l-0.32.721a6.845,6.845,0,0,0,3.825,1.122c2.384,0,4.046-1.482,4.046-3.425,0-2.163-1.783-2.944-3.565-3.545-1.863-.641-3.265-1.242-3.265-2.764,0-1.262,1.042-2.443,3-2.443A5.9,5.9,0,0,1,384,26.338l0.32-.741a6.536,6.536,0,0,0-3.584-1.041c-2.183,0-3.806,1.4-3.806,3.244,0,2.023,1.783,2.784,3.5,3.365,1.883,0.621,3.345,1.282,3.345,2.964C383.781,35.53,382.5,36.732,380.556,36.732Z"/>
  <path id="Berkeley_Library" data-name="Berkeley Library" class="cls-2" d="M21.688,19.192L23.044,19.6v0.135l1.22,0.406v0.135l0.542,0.135,0.135,0.271,0.813,0.271,0.136,0.271h0.271L26.3,21.494h0.271L26.839,21.9H27.11l0.949,1.083L28.6,23.389V23.66l0.407,0.271,0.136,0.542,0.271,0.135v0.406H29.55v0.271h0.136V25.69h0.136V26.1h0.136v0.542h0.135v0.677h0.136l-0.136,3.52H29.957v0.541H29.821l-0.136.812H29.55L29.279,33H29.143l-0.136.541-0.271.135v0.271l-0.407.271V34.49l-0.271.135-0.678.812H27.11l-0.407.542H26.432L26.3,36.25l-0.813.271-0.136.271-3.66,1.218-2.711.271v0.135H14.368V38.28h-1.22V38.145h-1.22V38.01H10.573V37.874l-6.1.135c-0.256.022-.271,0.135-0.271,0.135a2.658,2.658,0,0,1-1.9-.271H2.169V37.062l0.271-.135c0.763-.728,3.179.2,3.931-0.541,0.3-.347.136-1.568,0.136-2.166V5.926a4.151,4.151,0,0,1-.271-1.218H6.1L5.964,4.166H5.829V3.9a7.159,7.159,0,0,0-.813-0.542H3.253L1.22,3.083a2.593,2.593,0,0,1-.136-0.948A42.172,42.172,0,0,1,7.862,2H10.3V1.864l4.88-.135c3.015,0,5.328-.026,7.455.812L23.45,2.677V2.812l0.542,0.135V3.083l0.813,0.271V3.489l0.407,0.135L25.348,3.9h0.271l0.813,0.948L27.11,5.384a7.56,7.56,0,0,1,1.355,4.467v1.624l-0.813,2.437-0.271.135-0.136.542-0.407.271v0.271l-1.084.948-0.542.677H24.941l-0.271.406H24.4l-0.136.271-0.407.135V17.7H23.586l-0.136.271-0.407.135v0.135H22.773V18.38H22.5l-0.136.271H22.095v0.135C21.72,19.022,21.853,18.659,21.688,19.192ZM122.809,37.739a36.152,36.152,0,0,1-5.693.135,37.131,37.131,0,0,1-5.829-.135V36.927l0.542-.135V36.656h1.085a6.914,6.914,0,0,0,2.44-.271,11.4,11.4,0,0,0,.135-3.114V5.249h-0.135V4.843h-0.136V4.707a1.429,1.429,0,0,1-.271-0.271h-0.271V4.3l-2.847-.135a1.8,1.8,0,0,0-.406-0.542l0.135-.542,4.744-.542,2.982-.812c0.046,0.09.091,0.181,0.136,0.271a4.426,4.426,0,0,1,.136,2.437,44.2,44.2,0,0,0-.136,6.5q-0.068,8.257-.136,16.516v0.542h-0.135v6.633h0.135v0.948h0.136q0.068,0.338.136,0.677a1.285,1.285,0,0,1,.271.271H120.1v0.135c0.846,0.319,1.967-.335,2.575.271,0.138,0.1.134,0.166,0.271,0.271ZM76.586,1.864c0.086,1.565,0,4.1,0,6.092a14.3,14.3,0,0,1-.136,3.249q-0.135,8.866-.271,17.734a1.723,1.723,0,0,0,.678.135A1.062,1.062,0,0,1,77.4,28.8V28.669h0.271l0.136-.271h0.271l0.136-.271h0.271l0.271-.406h0.271l0.271-.406h0.271l0.136-.271,0.407-.135,0.407-.541h0.271l0.542-.677H81.6l0.678-.812H82.55l0.678-.812,0.407-.135,1.084-1.218c1.173-1.172,2.453-1.807,2.44-4.2a1.416,1.416,0,0,1-.271-0.271H86.617V18.109h-2.44a0.309,0.309,0,0,0-.271-0.135,2.119,2.119,0,0,1-.135-0.812h0.135V17.026l0.949-.135v0.135h1.627v0.135h0.813a22.962,22.962,0,0,1,3.118-.135,1.76,1.76,0,0,1,.949-0.135v0.135l0.407,0.135-0.542,1.083-0.407.271v0.271l-0.407.271v0.271l-0.949.812v0.271l-0.678.542L87.7,22.171H87.43l-0.949,1.083H86.21l-0.271.406-0.407.271v0.135H85.261l-0.271.406H84.855l-0.136.271H84.448l-0.407.542-0.407.135-0.542.677L82.55,26.5c-0.073.259,0.083,0.186,0.136,0.271a2.248,2.248,0,0,0,.542.948L83.5,27.856v0.271l0.678,0.542v0.271l0.678,0.541v0.271l0.678,0.541v0.271l0.407,0.271V30.97l0.271,0.135v0.271l0.813,0.677v0.271l0.542,0.406V33l0.542,0.406v0.271l0.542,0.406v0.271l0.813,0.677V35.3l0.271,0.135,0.407,0.542h0.271l0.407,0.541,0.542,0.135v0.135l1.762,0.135v0.135L93.8,37.2a1.717,1.717,0,0,1,.135.677,0.237,0.237,0,0,0-.135.135,23.3,23.3,0,0,1-2.44.135l-1.084-.135v0.135a10.851,10.851,0,0,1-3.118-.135L86.481,37.2H86.346V36.927l-0.407-.271V36.385l-0.407-.271V35.844l-0.542-.406V35.167l-0.678-.541V34.354L83.5,33.678l-0.135-.406L82.957,33V32.73l-0.542-.406V32.053l-0.542-.406-0.136-.406-0.271-.135V30.835l-0.407-.271V30.293l-0.407-.271V29.752l-0.542-.406c-0.3-.412-0.153-0.593-0.813-0.677a6.351,6.351,0,0,1-1.491.948l-0.136.271-0.542.135-0.136.271H76.722v0.135l-0.407.271V30.97H76.179a30.907,30.907,0,0,0,.271,5.415l0.678,0.135v0.135c1.018,0.324,2.721-.4,3.389.271h0.136v0.406a0.912,0.912,0,0,1,.135.135H80.653l-0.136.406H68.86a1.127,1.127,0,0,1-.271-0.812,1.13,1.13,0,0,1,.813-0.271V36.656h2.44a0.3,0.3,0,0,1,.271-0.135,8.46,8.46,0,0,0,.136-2.437,4.582,4.582,0,0,0,.135-2.031V13.371c0.02-1.611.441-4.25,0-5.821v-1.9c-0.1-.337-0.324-0.7-0.407-1.083A0.52,0.52,0,0,1,71.571,4.3H69.944L68.453,4.03a1.715,1.715,0,0,1-.136-0.677c0.154-.154.054,0,0.136-0.271a7.441,7.441,0,0,1,2.169-.135c0.393-.335,1.567-0.093,2.169-0.271V2.541l1.355-.135A7.67,7.67,0,0,1,76.586,1.864ZM212.272,3.083l3.253-.271V2.677H216.2V2.541h0.678V2.406h0.542V2.271H218.1V2.135l2.033-.271a2.586,2.586,0,0,1,.136.948h-0.136V3.624a14.638,14.638,0,0,0-.271,3.791q-0.067,4.2-.136,8.393a24.4,24.4,0,0,0,.136,3.791,2.129,2.129,0,0,0,.813.135,1.121,1.121,0,0,1,.543-0.271V19.328h0.271V19.192h0.271l0.271-.271H222.3c0.045-.09.09-0.181,0.136-0.271h0.271l0.271-.271h0.271V18.245h0.271V18.109h0.271V17.974l0.813-.271V17.568h0.407V17.433h0.271V17.3l1.22-.271V16.891h0.813V16.756h0.814v0.135h1.084v0.135h0.542v0.135h0.407V17.3h0.407v0.135l0.813,0.271v0.135l0.542,0.135L232.2,18.38h0.271l0.542,0.677,1.22,1.083v0.271l0.272,0.135v0.271l0.271,0.135,0.135,0.541,0.271,0.135c0.045,0.226.091,0.451,0.136,0.677h0.135q0.069,0.271.136,0.541h0.135q0.2,0.88.407,1.76h0.136v0.542H236.4v0.812h0.136v1.354a2.591,2.591,0,0,1,.135,1.218h-0.135v1.218l-0.678,2.437h-0.136q-0.135.406-.271,0.812h-0.135c-0.045.18-.091,0.361-0.136,0.541l-0.271.135v0.271l-0.271.135v0.271l-0.407.271V34.9l-0.813.677-0.678.812h-0.271l-0.271.406-0.542.135c-0.045.09-.09,0.181-0.136,0.271h-0.271v0.135h-0.271v0.135h-0.406V37.6H230.3v0.135h-0.406v0.135h-0.407V38.01H229.08v0.135H228.4V38.28a17.1,17.1,0,0,1-4.067.135V38.28h-0.813V38.145h-0.542V38.01h-0.542V37.874H221.9V37.739H221.49V37.6h-0.407a7.638,7.638,0,0,0-2.982-.948l-0.813,1.083c-0.413.9,0.167,1.748-1.22,1.76a13.528,13.528,0,0,1-.136-3.791,4.587,4.587,0,0,0,.136-2.031V13.507a53.2,53.2,0,0,0-.271-8.529l-0.407-.271V4.572h-0.271V4.437H213.9V4.3c-0.536-.152-1.279.173-1.627-0.135h-0.135V3.354C212.291,3.2,212.191,3.353,212.272,3.083Zm-12.2,30.73,0.135,0.541h-0.135q-0.069.338-.136,0.677H199.8V35.3l-0.272.135-0.406,1.218h-0.136v0.271h-0.135v0.406h-0.136a1.034,1.034,0,0,1-.271.677v0.135h-6.1a3.031,3.031,0,0,0-1.491-.135H187.06c-5,0-10.617.09-15.182,0a1.183,1.183,0,0,1-.271-0.948,1.488,1.488,0,0,1,1.084-.406c0.9-.74,3.148.8,3.254-1.083,0.316-.36.135-1.682,0.135-2.3V27.044q0.067-6.362.136-12.725c0-1.766.281-4.479-.136-5.957v-2.3h-0.135V5.113h-0.136V4.572h-0.135V4.3h-0.136V4.03l-0.407-.271V3.624h-2.846V3.489l-0.678-.135a1.733,1.733,0,0,1-.136-0.677c0.155-.154.054,0,0.136-0.271,0.273-.05.271-0.135,0.271-0.135h0.678V2.135a2.824,2.824,0,0,1,1.22.135h9.759l2.44-.135V2.271h1.356a2.567,2.567,0,0,1,.135.948l-0.406.135a4.05,4.05,0,0,1-2.169.271,16.788,16.788,0,0,0-3.389.406,2.6,2.6,0,0,1-.406.406V25.284c-0.283.311-.136,2.335-0.136,2.978q0.135,2.978.271,5.957h0.136v0.541a2.538,2.538,0,0,0,.949,1.489c0.509,0.514,3.9.271,5.015,0.271a26.137,26.137,0,0,0,7.726-.812l1.085-.135,2.575-1.083V34.354h0.271V34.219A3.584,3.584,0,0,1,200.073,33.813ZM11.793,3.76A33.282,33.282,0,0,0,11.657,8.9v9.341l0.407,0.135a4.186,4.186,0,0,0,1.9.135l4.609,0.135v0.135c0.473,0.132,1.018,0,1.355.135V18.786a7.275,7.275,0,0,0,3.389-4.2l0.136-2.031h0.136L23.45,10.393H23.315V9.852H23.179L23.044,8.9H22.908V8.633H22.773V8.227H22.637L22.5,7.686H22.366L22.23,7.144l-0.271-.135V6.738L21.688,6.6V6.332l-0.407-.271V5.79l-0.542-.406L20.2,4.707H19.926L19.79,4.437H19.519a5.7,5.7,0,0,0-3.931-1.218h-2.3V3.354H12.606V3.489H12.2V3.624ZM207.8,7.55a5.446,5.446,0,0,1,1.22.135,1.573,1.573,0,0,1,.271.542h0.136a3.65,3.65,0,0,1-.271,1.76h-0.136v0.271h-0.136v0.271h-0.135a1.017,1.017,0,0,1-.678.542,1.3,1.3,0,0,1-1.9-.542h-0.135V9.581h0.135V9.175h0.136q0.068-.271.136-0.541l0.677-.542,0.136-.271A1.349,1.349,0,0,0,207.8,7.55Zm-167.4,8.935H42.97V16.62l1.084,0.135v0.135l0.813,0.135v0.135L45.545,17.3v0.135l0.542,0.135V17.7l0.542,0.135v0.135l0.407,0.135,0.136,0.271h0.271l0.136,0.271h0.271l0.271,0.406h0.271l0.678,0.812,0.678,0.541v0.271l0.542,0.406v0.271a3.341,3.341,0,0,1,.949,1.76l-0.407.135v0.135l-0.949.135V23.66H49.2V23.8H48.663v0.135H47.985v0.135H47.307C45.923,24.5,44.13,24.6,42.7,25.014H41.614v0.135H40.53v0.135H39.31V25.42H37.819v0.135H36.328V25.69H36.056l-0.135.406a3.63,3.63,0,0,0-.136,1.76l0.407,2.437h0.136V30.7h0.136V30.97H36.6l0.136,0.677,0.271,0.135,0.136,0.541,0.271,0.135V32.73l0.542,0.406,0.813,0.948h0.271l0.136,0.271h0.271l0.136,0.271,0.542,0.135V34.9l0.813,0.271V35.3h0.407v0.135H41.75v0.135h0.542v0.135h0.542v0.135h0.813v0.135a9.659,9.659,0,0,0,3.118-.135h0.949l3.253-1.083a1.579,1.579,0,0,1,.271.542H51.1A4.958,4.958,0,0,1,49.34,36.52c-1.985,1.308-5.888,3.009-9.353,1.9L38.9,38.28a9.9,9.9,0,0,1-6.235-5.821V31.918H32.532V31.512H32.4V30.835H32.261V30.022H32.126a15.754,15.754,0,0,1,.136-3.926V25.284c0.937-3.12,1.818-5.216,4.2-6.9l0.271-.406h0.271l0.136-.271,2.169-.948A3.674,3.674,0,0,0,40.394,16.485Zm60.185,0h2.575V16.62l1.084,0.135v0.135l0.814,0.135v0.135l0.677,0.135v0.135l0.543,0.135V17.7h0.271l0.135,0.271,0.543,0.135v0.135l0.406,0.135,0.136,0.271h0.271l0.406,0.541h0.272l0.813,0.948,0.271,0.135v0.271l0.542,0.406v0.271l0.407,0.271a4.384,4.384,0,0,1,.678,1.625l-0.407.135a2.74,2.74,0,0,1-1.084.271V23.66h-0.543V23.8h-0.542v0.135h-0.678v0.135h-0.677c-1.713.534-3.909,0.571-5.694,1.083h-1.084v0.135h-1.22V25.42H98v0.135H96.512V25.69H96.241l-0.135.406a3.355,3.355,0,0,0-.136,1.625,7.834,7.834,0,0,0,.949,3.655l0.135,0.541,0.271,0.135v0.271L97.6,32.459V32.73l0.542,0.406,0.813,0.948h0.271l0.271,0.406,0.542,0.135v0.135h0.271V34.9l0.814,0.271V35.3l1.22,0.271v0.135l1.491,0.135a9.668,9.668,0,0,0,3.117.135V35.844h0.814V35.708h0.677V35.573h0.543a8.821,8.821,0,0,1,2.168-.812,1.7,1.7,0,0,1,.136.677l-0.542.271-0.136.271h-0.271l-0.135.271h-0.271c-0.046.09-.091,0.181-0.136,0.271l-0.542.135-0.136.271-0.542.135V37.2l-0.813.271V37.6h-0.407v0.135h-0.271v0.135h-0.407V38.01h-0.406v0.135h-0.407V38.28h-0.407v0.135l-1.22.135v0.135h-1.22a10.874,10.874,0,0,1-4.337-.677l-1.627-.541L96.919,37.2l-0.542-.135-0.271-.406H95.834l-0.542-.677a8.752,8.752,0,0,1-2.711-4.332V30.97H92.446V30.293H92.31V28.8H92.174q0.068-1.421.135-2.843h0.136V25.149l0.949-2.978H93.53V21.9l0.271-.135,0.271-.812,0.271-.135V20.546l2.033-2.166h0.271l0.271-.406H97.19l0.135-.271,2.169-.948A3.675,3.675,0,0,0,100.579,16.485Zm25.347,9.206a3.745,3.745,0,0,0-.271,1.9h0.136v1.354h0.135v0.677h0.136v0.542H126.2v0.406h0.135V30.97h0.136v0.271H126.6q0.136,0.406.271,0.812l0.271,0.135v0.271l0.407,0.271V33l0.271,0.135,0.542,0.677h0.272l0.406,0.541,0.542,0.135c0.046,0.09.091,0.18,0.136,0.271h0.271V34.9l0.542,0.135v0.135h0.407V35.3h0.271v0.135l0.949,0.135v0.135H132.7a11.458,11.458,0,0,0,3.931.271V35.844l1.627-.135V35.573h0.406V35.437h0.407V35.3h0.407V35.167h0.406a2.014,2.014,0,0,1,.949-0.406,1.572,1.572,0,0,1,.271.542h-0.135a3.73,3.73,0,0,1-1.491,1.083c-0.046.09-.091,0.181-0.136,0.271l-0.542.135v0.135h-0.271v0.135l-0.543.135a10.566,10.566,0,0,1-5.286,1.489h-1.9V38.551l-1.491-.135V38.28h-0.406V38.145H128.5V38.01H128.1V37.874h-0.406V37.739h-0.271V37.6l-0.814-.271-0.135-.271H126.2a10.411,10.411,0,0,1-1.491-1.354l-0.543-.406V35.031l-0.406-.271V34.49l-0.271-.135q-0.069-.271-0.136-0.541h-0.136q-0.135-.406-0.271-0.812h-0.135q-0.136-.609-0.271-1.218H122.4V31.241h-0.135V30.7h-0.136L122,26.5l0.813-3.52h0.135q0.069-.271.136-0.541h0.135V22.171h0.136V21.9h0.136V21.629l0.271-.271V21.088l0.271-.135V20.682l0.271-.135V20.275l0.542-.406V19.6l0.813-.677c0.046-.09.091-0.181,0.136-0.271h0.271l0.407-.541h0.271l0.135-.271h0.271c0.046-.09.091-0.18,0.136-0.271l1.22-.406V17.026h0.271V16.891l0.949-.135c3.209-1.063,6.6.872,8.4,2.166l1.084,1.218a10.445,10.445,0,0,1,1.356,1.489V21.9l0.271,0.135a2.017,2.017,0,0,1,.271,1.083l-0.406.135a9.759,9.759,0,0,1-2.169.677H137.99v0.135h-0.677c-1.724.537-3.9,0.569-5.693,1.083h-1.085v0.135H129.18V25.42h-1.491v0.135H126.2V25.69h-0.272Zm87.566,12.048c-0.288.052-.849,0.208-1.084,0.271a2,2,0,0,1-.949-0.135H204l-1.627.135V37.874H201.7a1.186,1.186,0,0,1-.271-0.948c0.826-.429,2.547-0.281,3.8-0.271,0.554-1.081.271-3.466,0.271-5.009V20.14l-0.543-1.625c-0.431-.614-2.4-0.4-3.253-0.541a2.114,2.114,0,0,1-.135-0.812H201.7V17.026h0.678V16.891h5.015V16.756h0.814V16.62c0.41-.118.754,0.008,1.084-0.135V16.62c0.293,0.192.273,0.32,0.271,0.812H209.7V18.38a18.582,18.582,0,0,0-.136,4.061l-0.135,11.778h0.135V35.3H209.7l0.135,0.812a2.88,2.88,0,0,1,.407.406h2.169v0.135h0.813A1.739,1.739,0,0,1,213.492,37.739Zm-153.443-18a3.1,3.1,0,0,0,1.355-.541l0.271-.406h0.271l0.136-.271h0.271l0.136-.271,0.407-.135V17.974h0.271V17.839l0.813-.271V17.433l0.813-.135V17.162h0.542V17.026h0.813v0.135h0.542V17.3h0.271v0.135h0.407v0.135H67.64l0.136,0.271h0.271l1.084,1.218a3.762,3.762,0,0,1-.542,2.166v0.406H68.453a2.07,2.07,0,0,1-.271.677H67.64a6.756,6.756,0,0,0-2.169-1.9H64.929a4.389,4.389,0,0,0-4.609,1.354,6.461,6.461,0,0,0-.271,2.843V30.7c0,1.508-.356,5.146.542,5.686,0.553,0.528,2.8.157,3.66,0.406H65.2v0.135h0.136v0.812a13.079,13.079,0,0,1-3.66.135c-0.447-.394-1.984-0.073-2.711-0.135-0.254-.022-0.271-0.135-0.271-0.135a3.866,3.866,0,0,0-1.491.135l-4.473.135a2.593,2.593,0,0,1-.136-0.948,0.238,0.238,0,0,0,.136-0.135l3.118-.135c0.569-1.109.271-3.569,0.271-5.144V19.6H55.982V18.922A2.972,2.972,0,0,1,55.3,18.38l-2.846-.135a3.058,3.058,0,0,1,0-1.218l1.627-.135a16.521,16.521,0,0,0,4.067.135,6.724,6.724,0,0,1,1.627-.271A7.2,7.2,0,0,1,60.049,19.734ZM272.592,35.979v0.406L271.237,37.6l-0.136.271H270.83l-0.271.406h-0.271v0.135a1.6,1.6,0,0,0-.407.271,3.869,3.869,0,0,1-1.9-.541l-0.407-.541h-0.271l-0.678-.812-0.271-.135V36.385l-0.407-.271V35.844l-0.406-.271c-0.32-.447-0.083-0.572-0.814-0.677a2.816,2.816,0,0,1-.949.677q-0.135.2-.271,0.406h-0.271l-0.271.406H262.7c-0.045.09-.09,0.181-0.136,0.271H262.29l-0.135.271-0.542.135c-0.046.09-.091,0.181-0.136,0.271h-0.271v0.135l-0.542.135v0.135h-0.407v0.135h-0.271V38.01l-0.813.135V38.28h-0.542a4.27,4.27,0,0,1-2.034.271V38.416l-1.22-.135V38.145l-0.813-.271-0.813-1.083V36.385h-0.136l-0.135-2.031h0.135V33.407h0.136V32.865h0.135V32.459h0.136V32.188h0.135V31.782l0.271-.135q0.069-.271.136-0.541l0.407-.271V30.564l0.542-.406,0.813-.948H256.6l0.136-.271,0.406-.135V28.669l0.814-.271V28.263h0.271V28.127l0.813-.271V27.721h0.407V27.586h0.271V27.45l0.813-.135V27.18h0.407V27.044h0.407V26.909h0.406V26.773h0.407V26.638h0.406V26.5l0.949-.135V26.232l0.949-.135,0.136-.271,0.271-.135V20.952q-0.2-.609-0.407-1.218h-0.135l-0.543-.677a1.271,1.271,0,0,1-.542-0.271,10.6,10.6,0,0,0-3.253,0h-0.813a17.462,17.462,0,0,1-1.627.677c0.047,1.617-.576,3.9-1.762,4.2V23.8h-0.949a1.879,1.879,0,0,1-.407-1.489h0.136q0.068-.406.136-0.812h0.135q0.067-.271.136-0.541h0.135V20.682l0.271-.135V20.275L255.784,20V19.734l0.949-.812,0.135-.271h0.271l0.272-.406h0.271l0.135-.271h0.271V17.839l0.814-.271V17.433l1.22-.271V17.026l1.762-.135V16.756a2.991,2.991,0,0,1,1.355.135h1.22v0.135H265v0.135l1.22,0.271,1.627,1.218v0.271l0.271,0.135q0.067,0.271.136,0.542h0.135v0.271h0.136a10.7,10.7,0,0,1,.135,3.249v7.175a10.155,10.155,0,0,0,.136,3.114h0.135q0.137,0.406.271,0.812l0.272,0.135A6.309,6.309,0,0,0,272.592,35.979ZM148.563,18.516l-0.135.541h-0.136a2.342,2.342,0,0,0,.136,1.218q0.135,0.677.271,1.354h0.136l0.135,0.541h0.136v0.406h0.135v0.271h0.136l0.135,0.541h0.136V23.8h0.135v0.271h0.136l0.135,0.541h0.136v0.406h0.136l0.135,0.541H150.6v0.406h0.135c0.045,0.18.091,0.361,0.136,0.541H151v0.406h0.136l0.135,0.541h0.136v0.406h0.136v0.271h0.135q0.067,0.338.136,0.677h0.135V29.21h0.136v0.271h0.135v0.406h0.136v0.271h0.135v0.406h0.136v0.271h0.136v0.406H152.9c0.09,0.271.181,0.541,0.271,0.812h0.136v0.271h0.135a1.15,1.15,0,0,1,.271.541h0.407V32.73h0.136V32.595h0.135V32.324h0.136V32.053h0.135V31.782H154.8V31.376h0.135V30.97h0.136V30.7h0.135V30.293h0.136q0.067-.406.136-0.812h0.135V29.075h0.136V28.669h0.135V28.263h0.136V27.856h0.135V27.45h0.136l0.135-.812h0.136l0.135-.812h0.136q0.135-.609.271-1.218h0.136V24.2h0.135V23.8h0.136V23.389h0.135V22.983h0.136V22.577h0.135q0.137-.677.272-1.354h0.135V20.682h0.136V18.651a1.265,1.265,0,0,1-.271-0.271h-0.272V18.245c-0.828-.312-2.2.333-2.846-0.271h-0.136V17.3c0.155-.154.054,0,0.136-0.271h0.542V16.891l3.66,0.135h1.9V16.891h2.44a2.61,2.61,0,0,1,.135.948,7.855,7.855,0,0,1-1.762.542l-0.407.677h-0.135v0.271l-0.271.271v0.271h-0.136V20.14l-0.271.135q-0.068.338-.136,0.677h-0.135v0.271h-0.136v0.271h-0.135q-0.137.406-.271,0.812h-0.136v0.406h-0.135q-0.069.271-.136,0.541h-0.136V23.66h-0.135q-0.067.271-.136,0.541H159v0.406h-0.136v0.271H158.73v0.406h-0.136l-0.135.541h-0.136v0.406h-0.135V26.5h-0.136q-0.067.338-.136,0.677h-0.135v0.406h-0.136v0.271H157.51v0.406h-0.136v0.271h-0.135v0.406c-2.187,4.838-4.051,10.052-6.507,14.621v0.271H150.6V44.1h-0.136v0.271h-0.135v0.271H150.19v0.271h-0.136q-0.135.406-.271,0.812h-0.135q-0.137.406-.271,0.812h-0.136l-0.135.541H148.97l-0.135.541H148.7v0.271h-0.136v0.271h-0.135v0.271h-0.136V48.7h-0.135v0.271h-0.136v0.271h-0.135v0.271H147.75v0.271h-0.135v0.271h-0.136v0.271h-0.136l-0.135.271h-0.271l-0.136.271h-0.542c-0.359.331-.93,0.107-1.491,0.271-0.714.209-2.892,1.034-3.66,0.271h-0.135V51.006l1.491-.541V50.329h0.271V50.193h0.271l0.135-.271,0.543-.135,0.406-.541h0.271l0.407-.541H144.9V48.434l0.542-.406V47.757l0.406-.271V47.215l0.543-.406V46.538l0.271-.135V46.132l0.406-.271c0.046-.135.091-0.271,0.136-0.406l0.271-.135V45.049l0.271-.135V44.643l0.407-.271V44.1l0.271-.135,0.135-.406H148.7V43.289l0.271-.135V42.883l0.271-.135V42.477l0.271-.135V42.071l0.271-.135q0.069-.271.136-0.541l0.271-.135q0.068-.271.136-0.541l0.271-.135V40.311l0.271-.271V39.769H151V39.5a1.8,1.8,0,0,0,.407-1.354h-0.136V37.739h-0.135V37.468H151l-0.135-.812h-0.136l-0.135-.677h-0.136l-0.135-.542H150.19V35.031h-0.136V34.761h-0.135q-0.068-.338-0.136-0.677h-0.135V33.678h-0.136l-0.135-.541h-0.136V32.73h-0.135q-0.069-.271-0.136-0.541h-0.135q-0.069-.338-0.136-0.677h-0.136V31.105h-0.135q-0.067-.271-0.136-0.541h-0.135V30.158h-0.136l-0.135-.542H147.75V29.21h-0.135q-0.069-.271-0.136-0.541h-0.136V28.263h-0.135q-0.067-.271-0.136-0.541h-0.135V27.315H146.8l-0.135-.542H146.53V26.367H146.4V26.1h-0.136V25.69h-0.135q-0.069-.271-0.136-0.541h-0.136V24.743h-0.135c-0.045-.18-0.091-0.361-0.136-0.541h-0.135V23.8H145.31l-0.135-.542h-0.136V22.848H144.9q-0.069-.271-0.136-0.541h-0.136V21.9H144.5q-0.068-.271-0.136-0.541h-0.135V20.952H144.09l-0.135-.542h-0.136V20.14h-0.135V19.869h-0.136V19.6l-0.271-.271V19.057l-0.271-.135c-0.045-.135-0.09-0.271-0.136-0.406H142.6a2.684,2.684,0,0,0-1.762-.271,1.679,1.679,0,0,1,0-.948l0.407-.135a9.078,9.078,0,0,1,2.846-.135,19.517,19.517,0,0,0,3.118,0h1.9V16.891l1.762,0.135a1.745,1.745,0,0,1,.271,1.083H151v0.135A10.688,10.688,0,0,0,148.563,18.516Zm95.428,1.218a2.062,2.062,0,0,0,1.22-.406l0.271-.406h0.271l0.136-.271h0.271l0.135-.271h0.272l0.135-.271,0.542-.135,0.136-.271h0.406V17.568h0.272V17.433h0.406V17.3a4.65,4.65,0,0,1,2.305,0v0.135h0.406l1.491,1.083v0.271H252.8a1.644,1.644,0,0,0,.271.406,4.613,4.613,0,0,1-.678,2.3l-0.135.677h-0.136a0.459,0.459,0,0,1-.407.271,1.928,1.928,0,0,0-.542-0.406V21.765l-0.271-.135-0.271-.406h-0.271l-0.271-.406-0.542-.135V20.546h-0.271V20.411H248.6a5.768,5.768,0,0,0-3.389.406c-0.045.09-.09,0.18-0.136,0.271H244.8l-0.271.271v0.271l-0.271.135a6.174,6.174,0,0,0-.271,1.624h-0.135v6.9c0,1.7-.317,5.494.677,6.092V36.52h0.407v0.135h1.491l2.711,0.135a4.686,4.686,0,0,1,.136.948,11.57,11.57,0,0,1-3.254.135c-0.521-.459-1.939.077-2.711-0.135V37.6h-2.44v0.135l-4.2.135a2.61,2.61,0,0,1-.135-0.948h0.135V36.791c0.914-.04,2.024-0.132,3.118-0.135,0.569-1.109.271-3.569,0.271-5.144V19.6c-0.307-.341-0.06-0.63-0.542-0.948-0.606-.581-2.425.079-2.982-0.406H236.4V17.162a13.583,13.583,0,0,1,3.8-.135,1.9,1.9,0,0,0,1.22.135,9.812,9.812,0,0,1,2.44-.271,6.934,6.934,0,0,1,.135,2.031h-0.135Zm36.87,0H281.4a3.42,3.42,0,0,1,1.22-.812c0.045-.09.09-0.181,0.136-0.271h0.271l0.135-.271h0.271l0.136-.271,0.542-.135c0.045-.09.09-0.18,0.136-0.271l0.677-.135V17.433H285.2V17.3h0.543V17.162a4.878,4.878,0,0,1,1.9.135v0.135h0.271v0.135l0.814,0.271,0.271,0.406h0.271l0.271,0.271v0.271l0.271,0.135c0.045,0.316.091,0.632,0.136,0.948h-0.136l-0.135.948h-0.136v0.406H289.4v0.271h-0.135c-0.16.3-.272,0.653-0.407,0.948-0.272-.078-0.117.016-0.271-0.135a5.39,5.39,0,0,1-1.491-1.218l-0.135-.271-1.491-.541a3.3,3.3,0,0,0-1.492.135h-0.813v0.135h-0.542l-1.22.812c-0.76,1.041-.678,2.787-0.678,4.6,0,3.362-.274,7.366.271,10.288l0.407,0.135V36.52h0.407v0.135h1.355l2.711,0.135a1.123,1.123,0,0,1,.271.812c-0.154.154-.054,0-0.135,0.271l-8.269-.271v0.135l-4.2.135a2.567,2.567,0,0,1-.135-0.948h0.135V36.791c0.881-.079,2.044-0.134,3.118-0.135,0.568-1.109.271-3.569,0.271-5.144V19.734h-0.136V19.057c0-.012-0.084.025-0.135-0.271l-0.407-.135V18.516h-0.271V18.38c-0.882-.322-2.428.509-2.711-0.406h-0.136a1.537,1.537,0,0,1,.272-0.948h3.659a1.9,1.9,0,0,0,1.22.135,9.812,9.812,0,0,1,2.44-.271,5.807,5.807,0,0,1,.136,1.76A1.194,1.194,0,0,0,280.861,19.734Zm16.266,30.73-0.407.135v0.135h-0.406V50.87l-1.491.135c-0.557.169-2.337,0.9-3.118,0.677V51.547l-0.813-.135c-0.046-.135-0.091-0.271-0.136-0.406a17.85,17.85,0,0,0,3.389-1.76V49.11l0.542-.406V48.434l0.542-.406V47.757l0.542-.406V47.08l0.407-.271V46.538l0.407-.271V46l0.406-.271V45.455l0.271-.135V45.049l0.407-.271V44.508l0.271-.135c0.045-.135.091-0.271,0.136-0.406h0.135V43.7l0.407-.271V43.154l0.271-.135V42.748l0.271-.135c0.045-.18.091-0.361,0.136-0.541l0.271-.135,0.135-.406h0.136l0.135-.541,0.272-.135V40.582l0.271-.271V40.04h0.135V39.769h0.136V39.5a1.842,1.842,0,0,0,.406-1.489h-0.135V37.6h-0.136V37.333h-0.135V36.927h-0.136V36.656h-0.135q-0.069-.338-0.136-0.677h-0.135V35.573h-0.136V35.3h-0.136V34.9h-0.135V34.625H299.7V34.219h-0.135c-0.045-.18-0.091-0.361-0.136-0.541H299.3V33.271H299.16l-0.135-.541h-0.136q-0.067-.338-0.136-0.677h-0.135V31.647h-0.136l-0.135-.541h-0.136V30.7h-0.135c-0.045-.181-0.091-0.361-0.136-0.541h-0.135V29.752h-0.136l-0.135-.541H297.4V28.8h-0.136V28.533h-0.135V28.127h-0.136l-0.135-.541H296.72V27.18h-0.135q-0.069-.271-0.136-0.541h-0.135V26.232h-0.136l-0.135-.541h-0.136V25.284h-0.136l-0.135-.542H295.5V24.337h-0.135c-0.045-.181-0.091-0.361-0.136-0.541h-0.135V23.389h-0.136l-0.135-.541h-0.136V22.441h-0.136V22.171h-0.135V21.765H294.28l-0.135-.542h-0.136V20.817h-0.135V20.546h-0.136V20.275H293.6V20h-0.136V19.734h-0.136c-0.29-.535-0.285-1.042-0.948-1.218-0.784-.634-1.74.632-1.763-1.083l0.272-.135a3.594,3.594,0,0,1,2.168-.271c2.2,0.622,5.38-.3,7.727.135a2.609,2.609,0,0,1,.135.948l-0.406.135V18.38h-1.763a0.3,0.3,0,0,1-.271.135l-0.135.406c-0.377.394-.1,2.034,0.135,2.572h0.136v0.271h0.135v0.406h0.136q0.067,0.271.136,0.541h0.135v0.406H299.3l0.135,0.541h0.136v0.271H299.7v0.406h0.136l0.135,0.541h0.136v0.406h0.136v0.271h0.135q0.067,0.271.136,0.541h0.135V26.5h0.136v0.271h0.135V27.18h0.136l0.135,0.541h0.136v0.406h0.136V28.4H301.6q0.067,0.338.136,0.677h0.135v0.406h0.136v0.271h0.135v0.406h0.136v0.271h0.135v0.406h0.136v0.271h0.135v0.406h0.136v0.271l0.271,0.135c0.335,0.524.088,0.848,0.949,0.948l0.135-.406h0.136V32.053h0.136l0.135-.541h0.136V31.105h0.135c0.045-.271.091-0.541,0.136-0.812h0.135q0.069-.406.136-0.812H305.4V29.075h0.136V28.669h0.136V28.263H305.8V27.856h0.136V27.45h0.135V27.044h0.136l0.135-.812h0.136V25.961h0.135q0.2-.88.407-1.76h0.136V23.8h0.135V23.389h0.136V22.983h0.135V22.577H307.7l0.135-.812h0.136V21.223h0.135V20.817h0.136V18.651l-0.271-.135c-0.416-.409-2.411-0.284-3.118-0.406a1.718,1.718,0,0,1-.135-0.677c0.154-.154.054,0,0.135-0.271a13.08,13.08,0,0,1,3.66-.135,2.579,2.579,0,0,0,1.491.135,8.818,8.818,0,0,1,3.389-.135,2.131,2.131,0,0,1,.136.812,1.737,1.737,0,0,0-.272.271h-0.271v0.135h-0.949l-0.135.271-0.542.406v0.271l-0.271.135q-0.069.271-.136,0.541h-0.136V20.14h-0.135v0.271h-0.136v0.271h-0.135v0.271h-0.136q-0.135.406-.271,0.812h-0.135v0.406h-0.136v0.271H309.6v0.271h-0.136v0.271h-0.136v0.406h-0.135q-0.067.271-.136,0.541H308.92v0.406h-0.136v0.271h-0.135v0.406h-0.136l-0.135.541h-0.136v0.406h-0.136v0.271h-0.135q-0.067.338-.136,0.677H307.7v0.406h-0.136l-0.135.541h-0.136v0.406h-0.135v0.271h-0.136l-0.135.677h-0.136v0.406h-0.136v0.271H306.48v0.406h-0.136l-0.135.677h-0.136v0.271h-0.135v0.406H305.8l-0.135.542h-0.136v0.406H305.4v0.271H305.26v0.406h-0.136l-0.135.677h-0.136v0.271h-0.135v0.406h-0.136l-0.135.541h-0.136v0.406h-0.136l-0.135.541H303.9V36.52h-0.135c-0.045.18-.091,0.361-0.136,0.541H303.5v0.406h-0.136l-0.135.541h-0.136v0.406h-0.135v0.271H302.82v0.271h-0.136v0.271h-0.135v0.406h-0.136V39.9h-0.135q-0.137.406-.271,0.812h-0.136v0.406h-0.135q-0.137.406-.271,0.812h-0.136v0.271h-0.136v0.271h-0.135v0.271h-0.136v0.271h-0.135v0.271h-0.136V43.56h-0.135v0.406H300.38l-0.271.812h-0.136v0.271h-0.135V45.32H299.7v0.271h-0.135v0.271h-0.136q-0.474,1.083-.949,2.166h-0.135V48.3h-0.136v0.271h-0.135V48.84H297.94V49.11h-0.135v0.271h-0.136l-0.135.541H297.4A1.139,1.139,0,0,0,297.127,50.464Zm-256.6-32.9V17.7H39.987v0.135l-0.813.271v0.135H38.9l-0.271.406-0.678.541v0.271l-0.407.271-0.136.542a7.778,7.778,0,0,0-1.356,4.061,3.65,3.65,0,0,0,1.22.135c0.383-.318,1.191.029,1.762-0.135,1.562-.45,3.5-0.5,5.015-0.948h0.813V23.254c0.561-.167,1.13.06,1.491-0.271h0.136V22.035a1.052,1.052,0,0,1-.271-0.541H46.087V21.223H45.952l-0.136-.406-0.271-.135V20.411l-1.084-.948C43.4,18.405,42.687,17.562,40.53,17.568Zm60.184,0V17.7l-0.949.135v0.135H99.494l-0.136.271H99.088l-0.271.406L98,19.328V19.6l-0.271.135L97.6,20.14H97.461l-0.136.541a7.62,7.62,0,0,0-1.084,3.655,3.65,3.65,0,0,0,1.22.135c0.383-.318,1.191.029,1.762-0.135,1.567-.451,3.484-0.493,5.015-0.948h0.814V23.254c0.561-.167,1.13.06,1.491-0.271h0.135V22.171h-0.135c-0.045-.226-0.091-0.451-0.136-0.677l-0.271-.135V21.088H106V20.817l-0.407-.271V20.275l-0.813-.677C103.7,18.519,102.909,17.563,100.714,17.568Zm25.212,6.769a13.056,13.056,0,0,0,4.88-.406l1.627-.135c1.217-.365,2.777-0.559,4.066-0.812a3.778,3.778,0,0,0-.677-2.031l-0.271-.135V20.546l-0.543-.406V19.869l-0.813-.677-0.135-.271h-0.272l-0.406-.542-0.542-.135c-0.046-.09-0.091-0.181-0.136-0.271h-0.271V17.839h-0.407V17.7l-1.626-.135V17.7h-0.543v0.135h-0.271v0.135l-0.542.135-0.271.406H128.5l-0.407.541H127.96v0.271l-0.407.271-0.135.541-0.272.135-0.406,1.218H126.6v0.271h-0.135v0.406A6.5,6.5,0,0,0,125.926,24.337Zm-113.455-4.6v0.135H12.064l-0.136.271H11.793v0.271H11.657V33.542h0.135v1.083h0.136v0.812h0.136L12.2,36.114l0.407,0.271V36.52l0.813,0.271v0.135h0.407v0.135L15.453,37.2v0.135a7.74,7.74,0,0,0,3.253-.271h0.542V36.927h0.407V36.791h0.271V36.656h0.407V36.52H20.6V36.385h0.271l0.136-.271h0.271l0.136-.271h0.271l0.271-.406,0.949-.812V34.354l0.271-.135V33.948l0.271-.135L23.721,33h0.136V32.73h0.136V32.324h0.136V31.918h0.136V31.241H24.4V30.429h0.136a11.6,11.6,0,0,0-.271-3.79H24.128V26.1H23.992V25.826H23.857V25.42H23.721V25.149H23.586V24.878l-0.271-.135L23.179,24.2l-0.271-.135V23.8L22.5,23.524V23.254l-0.271-.135-0.678-.812H21.281l-0.407-.541H20.6l-0.136-.271H20.2l-0.136-.271-0.542-.135V20.952l-0.813-.271V20.546H18.3V20.411H17.893V20.275H17.486V20.14H16.944V20H16.4V19.869Zm213.356,0c-0.335.282-.982-0.014-1.491,0.135V20l-1.355.135v0.135h-0.542v0.135h-0.407v0.135h-0.407v0.135h-0.406v0.135l-0.543.135v0.135a1.271,1.271,0,0,0-.813.541h-0.136v13h0.136V34.9H220l0.813,0.948,0.542,0.135c0.045,0.09.09,0.18,0.136,0.271h0.271v0.135h0.406V36.52h0.272v0.135l0.948,0.135a6.738,6.738,0,0,0,3.931.135H228V36.791l0.813-.135V36.52l0.814-.271V36.114h0.271V35.979l0.542-.135V35.708l0.407-.135,0.135-.271h0.271l0.136-.271,0.542-.406V34.354l0.271-.135c0.045-.18.091-0.361,0.136-0.541h0.135c0.045-.18.091-0.361,0.136-0.541h0.135a12.8,12.8,0,0,0,.543-6.227V26.232C232.265,23.231,229.776,19.745,225.827,19.734Zm38.9,7.581a4.532,4.532,0,0,0-2.44.406h-0.406v0.135h-0.271v0.135h-0.407v0.135h-0.271v0.135h-0.407V28.4h-0.271v0.135h-0.271c-0.045.09-.09,0.18-0.136,0.271l-0.542.135-0.135.271H258.9q-0.137.2-.271,0.406h-0.272v0.135l-0.406.271v0.271l-0.407.271-0.135.677h-0.136v0.406h-0.136a5.921,5.921,0,0,0,0,2.707c0.046,0.135.091,0.271,0.136,0.406h0.136c0.241,0.347-.147.259,0.406,0.406,0.691,0.815,3.463.7,4.338,0.271L262.7,35.3c0.045-.09.09-0.181,0.136-0.271H263.1l0.135-.271h0.271l0.543-.677,0.271-.135V33.678l0.271-.135L264.73,33h0.136V31.376A24.679,24.679,0,0,0,264.73,27.315ZM28.872,43.831h4.067v1.083H30.092v1.9h2.576v1.083H30.092v1.9H33.21a5.364,5.364,0,0,0-.136,1.083h-4.2V43.831Zm11.657,6.5a2.578,2.578,0,0,1,.407-1.083c0.953,0.446,1.541.884,2.711,0.406a1.947,1.947,0,0,0,.271-0.948c-0.154-.154-0.054,0-0.136-0.271-0.335-.144-0.658-0.386-0.949-0.541H42.563V47.757H42.292V47.621l-0.542-.135-0.813-.948a2.146,2.146,0,0,1,.136-1.489,1.368,1.368,0,0,1,.949-0.948c0.7-.741,2.545,0,3.118.271-0.078.272,0.016,0.117-.136,0.271a2.382,2.382,0,0,1-.271.677,4.555,4.555,0,0,0-2.169-.406,1.66,1.66,0,0,0-.407,1.218l0.813,0.677,1.355,0.406,0.813,0.948A1.812,1.812,0,0,1,45,49.652a1.368,1.368,0,0,1-.949.948c-0.258.268-.078,0-0.407,0.135V50.87H43.105v0.135C42.258,51.238,41.142,50.474,40.53,50.329Zm26.026-6.5h1.762a8.5,8.5,0,0,0,.949.406l0.542,0.677h0.136v0.271H70.08v0.271h0.136v0.406h0.136c0.618,1.754-.231,4.412-1.491,4.738v0.135H68.453c-1.027.425-1.352,0.123-2.44,0V50.6l-0.407-.135L65.2,49.923H65.064l-0.136-.541H64.793V49.11H64.658V48.7H64.522V47.892H64.387V46.809h0.136V46h0.136V45.591h0.136l0.136-.541h0.136V44.778l1.084-.812h0.407V43.831Zm5.422,0h4.066v1.083H73.2v1.9h2.576v1.083H73.2V50.87h-1.22V43.831Zm14.1,6.227a1.152,1.152,0,0,0-.542.271v0.135L84.99,50.6v0.135c-0.722.312-2.346,0.364-2.847-.135-1.477-.349-2.145-3.415-1.356-5.144L81.6,44.372h0.271V44.237a1.767,1.767,0,0,0,.407-0.271l2.169-.135a9.511,9.511,0,0,1,1.491.812,8.418,8.418,0,0,1-.542.812l-0.542-.135-0.136-.271a3.844,3.844,0,0,0-2.033,0l-0.407.541H82.144a1.206,1.206,0,0,1-.271.541l-0.136,1.624c0.117,0.431.316,1.045,0.407,1.489a2.046,2.046,0,0,0,.678.406,1.565,1.565,0,0,0,1.22.271V49.787h0.407V49.652h0.271V49.517H84.99a1.1,1.1,0,0,1,.542-0.406v0.135A1.251,1.251,0,0,1,86.075,50.058Zm6.913,0.812h-1.22V50.735H91.632c-0.056-.654-0.33-0.859-0.407-1.489H88.379L87.837,50.87H86.752a7.374,7.374,0,0,1,.813-2.3V48.163H87.7V47.757h0.136V47.351h0.136V46.944h0.136V46.674h0.135l0.136-.812a7.021,7.021,0,0,0,.678-1.9,4.573,4.573,0,0,0,1.491-.135V44.1h0.136l0.136,0.812h0.136V45.32H91.09v0.271h0.136V46h0.135V46.4H91.5l0.271,1.218H91.9v0.271h0.135V48.3h0.136l0.271,1.218h0.136v0.271h0.135A6.015,6.015,0,0,1,92.988,50.87Zm9.082-7.039H106a2.821,2.821,0,0,1,.135,1.083H103.29v1.9h2.575v0.948a9,9,0,0,1-2.575.135V50.87h-1.22V43.831Zm6.913,0c1.479-.049,2.977.122,3.253,1.218,1.028,0.866.669,3.887,0,4.874H112.1l-0.406.541h-0.271V50.6a1.084,1.084,0,0,0-.543.271l-1.491.135-1.22-.406-0.677-.812h-0.136l-0.135-.541h-0.136a6.115,6.115,0,0,1,.271-4.332l0.949-.812,0.678-.135V43.831ZM5.558,43.966h1.22v3.791l0.136,1.625L7.32,49.652a1.636,1.636,0,0,0,1.22.271c0.3-.339.52-0.13,0.678-0.677a3,3,0,0,0,.136-1.489V43.966h1.356c0.046,2.2.451,6.2-1.22,6.633a2.634,2.634,0,0,1-2.44.135,1.551,1.551,0,0,1-1.22-1.083,2.746,2.746,0,0,1-.271-1.76V43.966Zm6.778,0h1.22l0.136,0.406,0.271,0.135v0.271l0.271,0.135,0.136,0.541,0.271,0.135v0.271L14.911,46v0.271h0.136v0.271l0.271,0.135,0.136,0.541,0.271,0.135a2.716,2.716,0,0,1,.407.948h0.136V43.966h1.355v6.769a3.65,3.65,0,0,1-1.22.135L13.691,46.4H13.555V50.87h-1.22v-6.9Zm6.913,0h1.22v6.9h-1.22v-6.9Zm2.44,0h1.22a0.236,0.236,0,0,0,.136.135,6.707,6.707,0,0,0,.678,2.031c0.407,1.02.545,2.114,0.949,3.114h0.136a3.3,3.3,0,0,1,.407-1.354V47.486h0.136V47.08h0.136V46.674h0.136V46.268h0.136V45.861H25.89V45.455a5.633,5.633,0,0,0,.542-1.489h1.22l-2.3,6.9H23.992a0.237,0.237,0,0,0-.136-0.135,5.188,5.188,0,0,0-.542-1.624l-0.271-1.218H22.908V47.621H22.773L22.5,46.4A9.819,9.819,0,0,1,21.688,43.966Zm13.013,0h3.118V44.1L38.5,44.237c0.253,0.416.994,1.13,0.813,1.9H39.174v0.677H39.039a1.368,1.368,0,0,1-.949.948l1.627,3.114H38.361a13.95,13.95,0,0,0-1.491-2.707H35.921V50.87H34.7v-6.9Zm11.929,0h1.22v6.9h-1.22v-6.9Zm2.576,0h4.88l-0.136,1.083H52.187V50.87h-1.22V45.049H49.2V43.966Zm5.693,0h1.355c0.209,1.065.982,1.73,1.22,2.843a0.237,0.237,0,0,0,.136-0.135,3.362,3.362,0,0,0,.542-1.083h0.136V45.32a4.937,4.937,0,0,0,.678-1.354H60.32a2.791,2.791,0,0,1-.542.948l-0.136.541H59.507L59.371,46l-0.271.135V46.4l-0.271.271v0.271H58.693v0.271l-0.271.135v0.271H58.287v3.114a4.194,4.194,0,0,1-1.355.135V47.757H56.8V47.486H56.66V47.215H56.525V46.944l-0.271-.271V46.4l-0.271-.135V46H55.847V45.726l-0.271-.271V45.185L55.3,45.049V44.778H55.169Zm39.038,0h1.22v5.821h2.982A4.619,4.619,0,0,1,98,50.87H93.937v-6.9Zm5.287,0h1.356v6.769a4.2,4.2,0,0,1-1.356.135v-6.9Zm14.639,0h3.118V44.1l0.678,0.135,0.678,0.948c0.045,1.321-.077,2.322-1.085,2.572a3.6,3.6,0,0,0,.542.948q0.069,0.271.136,0.541h0.136l0.135,0.541,0.271,0.135v0.271h0.136l0.135,0.677h-1.22a13.987,13.987,0,0,0-1.491-2.707h-0.949V50.87h-1.22v-6.9Zm7.185,0,0.135,0.406h0.136v0.271h0.135v0.271l0.271,0.135V45.32L122,45.455v0.271h0.135V46l0.271,0.135c0.045,0.181.091,0.361,0.136,0.541l0.271,0.135V47.08l0.271,0.135,0.135,0.541,0.272,0.135,0.135,0.406h0.136V43.966h1.22v6.9h-1.085a1.256,1.256,0,0,0-.271-0.271V50.329l-0.271-.135q-0.067-.271-0.136-0.541l-0.271-.135V49.246l-0.271-.135-0.135-.406H122.4l-0.135-.541L122,48.027V47.757l-0.272-.135-0.135-.541-0.271-.135c-0.045-.135-0.091-0.271-0.136-0.406h-0.135v4.2a4.2,4.2,0,0,1-1.356.135V44.1A4.2,4.2,0,0,1,121.047,43.966Zm5.422,0h1.22v6.9h-1.22v-6.9Zm6.1,0q1.153,3.452,2.3,6.9h-1.22q-0.271-.812-0.542-1.624h-2.847q-0.272.812-.542,1.624h-1.084a2.92,2.92,0,0,1,.406-1.083q0.136-.609.271-1.218h0.136V48.3h0.135q0.069-.406.136-0.812h0.135q0.069-.406.136-0.812h0.136V46.4h0.135V46H130.4V45.591q0.339-.812.677-1.625h1.491Zm-65.742.948v0.135H66.555l-0.271.406H66.149c-0.353.526-.71,2.784-0.136,3.384a0.77,0.77,0,0,0,.407.542l0.271,0.406H67.1a1.875,1.875,0,0,0,1.356-.135,7.449,7.449,0,0,0,.678-1.218,6.533,6.533,0,0,0-.271-2.843l-0.813-.677h-1.22Zm42.428,0a2.211,2.211,0,0,0-.814.948,5.332,5.332,0,0,0-.271,2.708h0.136V48.84h0.135c0.24,0.449.118,0.671,0.678,0.812a1.437,1.437,0,0,0,1.085.271V49.787h0.406l0.542-.677a4.31,4.31,0,0,0,.407-2.708,8.846,8.846,0,0,1-.407-0.948,2.967,2.967,0,0,1-.677-0.541h-1.22Zm-73.333.135V47.08a4.051,4.051,0,0,0,1.762-.271,2.756,2.756,0,0,0,.271-1.354,0.91,0.91,0,0,1-.407-0.406H35.921Zm79.161,0V47.08a4.055,4.055,0,0,0,1.763-.271,2.758,2.758,0,0,0,.271-1.354,0.911,0.911,0,0,1-.407-0.406h-1.627ZM88.786,48.3h2.033a5.272,5.272,0,0,0-.271-1.083H90.412V46.944H90.277V46.538H90.141V46.132H90.006L89.87,45.32H89.735v0.135H89.6Zm41.885,0H132.7l-0.949-2.978c-0.154.154-.054,0-0.135,0.271h-0.136Z"/>
</svg>
